<svg version="1.1" x="0" y="0" width="100%" height="100%" viewBox="0 0 50 50" xmlns="http://www.w3.org/2000/svg" xmlns:xlink="http://www.w3.org/1999/xlink">
  <style type="text/css">.st1{stroke:none;stroke-width:1;stroke-linecap:butt;stroke-linejoin:miter;fill:#55207c;fill-opacity:1;fill-rule:nonZero;}
.st2{stroke:none;stroke-width:1;stroke-linecap:butt;stroke-linejoin:miter;fill:#ffffff;fill-opacity:1;fill-rule:nonZero;}
.st3{stroke:none;stroke-width:1;stroke-linecap:butt;stroke-linejoin:miter;fill:#ffffff;fill-opacity:1;fill-rule:nonZero;}
.st4{stroke:none;stroke-width:1;stroke-linecap:butt;stroke-linejoin:miter;fill:#ffffff;fill-opacity:1;fill-rule:nonZero;}
.st5{stroke:none;stroke-width:1;stroke-linecap:butt;stroke-linejoin:miter;fill:#ffffff;fill-opacity:1;fill-rule:nonZero;}
.st6{stroke:none;stroke-width:1;stroke-linecap:butt;stroke-linejoin:miter;fill:#ffffff;fill-opacity:1;fill-rule:nonZero;}
.st7{stroke:none;stroke-width:1;stroke-linecap:butt;stroke-linejoin:miter;fill:#ffffff;fill-opacity:1;fill-rule:nonZero;}
.st8{stroke:none;stroke-width:1;stroke-linecap:butt;stroke-linejoin:miter;fill:#ffffff;fill-opacity:1;fill-rule:nonZero;}
.st9{stroke:none;stroke-width:1;stroke-linecap:butt;stroke-linejoin:miter;fill:#ffffff;fill-opacity:1;fill-rule:nonZero;}
.st10{stroke:none;stroke-width:1;stroke-linecap:butt;stroke-linejoin:miter;fill:#ffffff;fill-opacity:1;fill-rule:nonZero;}
.st11{stroke:none;stroke-width:1;stroke-linecap:butt;stroke-linejoin:miter;fill:#ffffff;fill-opacity:1;fill-rule:nonzero;}
.st12{stroke:none;stroke-width:1;stroke-linecap:butt;stroke-linejoin:miter;fill:#ffffff;fill-opacity:1;fill-rule:nonzero;}
.st13{stroke:none;stroke-width:1;stroke-linecap:butt;stroke-linejoin:miter;fill:#ffffff;fill-opacity:1;fill-rule:nonzero;}
.st14{stroke:none;stroke-width:1;stroke-linecap:butt;stroke-linejoin:miter;fill:#ffffff;fill-opacity:1;fill-rule:nonzero;}
.st15{stroke:none;stroke-width:1;stroke-linecap:butt;stroke-linejoin:miter;fill:#ffffff;fill-opacity:1;fill-rule:nonzero;}
.st16{stroke:none;stroke-width:1;stroke-linecap:butt;stroke-linejoin:miter;fill:#ffffff;fill-opacity:1;fill-rule:nonzero;}
.st17{stroke:none;stroke-width:1;stroke-linecap:butt;stroke-linejoin:miter;fill:#ffffff;fill-opacity:1;fill-rule:nonzero;}
.st18{stroke:none;stroke-width:1;stroke-linecap:butt;stroke-linejoin:miter;fill:#ffffff;fill-opacity:1;fill-rule:nonzero;}
.st19{stroke:none;stroke-width:1;stroke-linecap:butt;stroke-linejoin:miter;fill:#ffffff;fill-opacity:1;fill-rule:nonzero;}
.st20{stroke:none;stroke-width:1;stroke-linecap:butt;stroke-linejoin:miter;fill:#ffffff;fill-opacity:1;fill-rule:nonzero;}
.st21{stroke:none;stroke-width:1;stroke-linecap:butt;stroke-linejoin:miter;fill:#ffffff;fill-opacity:1;fill-rule:nonzero;}
.st22{stroke:none;stroke-width:1;stroke-linecap:butt;stroke-linejoin:miter;fill:#ffffff;fill-opacity:1;fill-rule:nonzero;}
.st23{stroke:none;stroke-width:1;stroke-linecap:butt;stroke-linejoin:miter;fill:#ffffff;fill-opacity:1;fill-rule:nonzero;}</style>
  <defs/>
  <g id="图层_2">
    <g id="图层_1-2">
      <path class="st1" id="路径48" d="M 42.19381009878296 12.5749356993783 C 42.19381009878296 12.5749356993783 42.1937916530231 12.837816695223454 42.1937916530231 12.837816695223454 C 41.98788893504539 10.802181404489076 41.19867047352456 9.099112455448596 39.82613626846015 7.7286098481020495 C 38.45360206339568 6.358107240755501 36.84396348837821 5.665869893532456 34.99722054340765 5.651897806432902 C 34.99722054340765 5.651897806432902 35.78723978530866 5.651953240281032 35.78723978530866 5.651953240281032 C 32.055532259126764 4.921667136305126 28.295065057071604 4.573816176681664 24.505838179143275 4.608400361410669 C 20.646200510657224 4.57129349399451 16.817215170752593 4.933216418886119 13.018882159429156 5.694169136085532 C 13.018882159429156 5.694169136085532 13.303289086513544 5.694189092270855 13.303289086513544 5.694189092270855 C 11.607118741889183 5.913231648095946 10.158586204767328 6.696041107334212 8.95769147514796 8.042617469985647 C 7.756796745528505 9.389193832637075 7.066842268251394 11.004293194548437 6.887828043316862 12.88791555571968 C 6.887828043316862 12.88791555571968 6.887828043316862 12.88791555571968 6.887828043316862 12.88791555571968 C 6.18118856697202 17.101702235885597 5.838548689030947 21.351587647381336 5.859908409493667 25.63757179020691 C 5.831833535772807 29.822756071937423 6.144916392054903 33.97629779505096 6.799156978339929 38.09819695954738 C 6.799156978339929 38.09819695954738 6.799241828835162 36.88894437865873 6.799241828835162 36.88894437865873 C 6.804050518458503 38.94941114936757 7.427172801614487 40.746039261018716 8.668608678302993 42.278828713611965 C 9.91004455499162 43.81161816620535 11.454020655272728 44.69068648579043 13.300536979146298 44.91603367236731 C 13.300536979146298 44.91603367236731 13.300536979146298 44.91603367236731 13.300536979146298 44.91603367236731 C 17.101438850087902 45.67724391935793 20.933006759149706 46.03970436779693 24.79524070633145 46.0034150176843 C 28.570063310931456 46.02477061724667 32.31477993170006 45.66284177941125 36.029390568637496 44.91762850417798 C 36.029390568637496 44.91762850417798 35.002365554166275 44.91755644017546 35.002365554166275 44.91755644017546 C 36.986818397530044 44.90118734316016 38.68264616376419 44.116954781915105 40.089848852868755 42.56485875644025 C 41.49705154197339 41.012762730965484 42.21360257309004 39.13622469228315 42.23950194621922 36.93524464039311 C 42.23950194621922 36.93524464039311 42.23944046035314 37.81151462654373 42.23944046035314 37.81151462654373 C 42.89693305995634 33.678182470806995 43.21059962206061 29.51300112539804 43.180440146666015 25.31597059031675 C 43.21605314122026 21.03422866228324 42.88717645859259 16.787217031970233 42.19381009878295 12.57493569937773 C 42.19381009878295 12.57493569937773 42.19381009878296 12.5749356993783 42.19381009878296 12.5749356993783  Z "/>
      <path class="st2" id="路径49" d="M 5.196070897178903 28.79209717591628 C 5.074704820265405 28.792088659935516 4.9614710903556345 28.758426644713808 4.856369707449382 28.69111113025113 C 4.751268324543221 28.62379561578845 4.668380203977395 28.53184517095399 4.607705345751631 28.41525979574779 C 4.547030487525954 28.298674420541577 4.516697781271725 28.173073593531456 4.516707226988945 28.038457314717473 C 4.516707226988945 28.038457314717473 4.5168031449400745 26.671476136322696 4.5168031449400745 26.671476136322696 C 4.579296430247874 25.633528414236753 4.953010671847417 24.759241500904345 5.637945869738612 24.048615396325385 C 6.322881067629778 23.337989291746457 7.134281970632294 22.982709143437255 8.072148578745942 22.982774951397822 C 9.010015186859674 22.982840759358382 9.821366223477334 23.338234772469598 10.506201688598907 24.048956990731455 C 11.191037153720364 24.75967920899329 11.56462869820375 25.634018559068082 11.626976322048804 26.671975040955854 C 11.626961720235151 26.880073777492527 11.560617090251233 27.057692505264814 11.42794243209718 27.20483122427263 C 11.295267773942903 27.351969943280448 11.135122595300288 27.42553272050151 10.947506896169113 27.42551955593587 C 10.759891197037945 27.425506391370213 10.599756343436807 27.351921140829877 10.46710233536551 27.204763804314766 C 10.334448327294298 27.057606467799673 10.268128624165554 26.879978431273752 10.268143225979221 26.671879694737076 C 10.26819059697934 25.99676867736798 10.053037141480116 25.420510279801405 9.622682859481491 24.94310450203731 C 9.19232857748296 24.465698724273203 8.67282131986972 24.22697448124108 8.064161086641894 24.226931772940894 C 7.455500853414006 24.226889064640737 6.9359600994453565 24.465540400043995 6.505538824735979 24.94288577915075 C 6.075117550026652 25.420231158257508 5.859883227171786 25.996459356495436 5.85983585617166 26.671570373864515 C 5.85983585617166 26.671570373864515 5.8597399382205335 28.038551552259296 5.8597399382205335 28.038551552259296 C 5.857722562584283 28.242340962752255 5.792515006629218 28.41712859073074 5.664117270355479 28.562914436194784 C 5.535719534081657 28.708700281658846 5.379704076356212 28.78509452823266 5.196070897178903 28.79209717591628 C 5.196070897178903 28.79209717591628 5.196070897178903 28.79209717591628 5.196070897178903 28.79209717591628  Z "/>
      <path class="st3" id="路径50" d="M 16.73748959661243 39.65865489270371 C 14.95758173875736 39.656122411625006 13.437998528883021 38.957243189802305 12.178739966989209 37.562017227235806 C 10.919481405095402 36.16679126466932 10.287746121082044 34.48206515931614 10.283534114948905 32.507838911176364 C 10.283548716762562 32.29974017463965 10.34989334674649 32.122121446867396 10.482568004900635 31.974982727859583 C 10.615242663054778 31.82784400885179 10.7753878416974 31.754281231630664 10.963003540828625 31.754294396196308 C 11.150619239959708 31.754307560761973 11.310754093560874 31.827892811302355 11.443408101632235 31.975050147817456 C 11.57606210970343 32.12220748433251 11.642381812832221 32.29983552085842 11.642367211018561 32.50793425739513 C 11.696119090823174 34.024219912219 12.2160819828917 35.3082334667463 13.202255887224345 36.35997492097705 C 14.188429791556866 37.41171637520776 15.365564580375638 37.93763510039947 16.733660253680736 37.937731096552156 C 18.101755926985785 37.937827092704836 19.278964509247476 37.41207356641713 20.265286000466006 36.36047051768894 C 21.251607491684574 35.30886746896073 21.771750571236538 34.02492689629695 21.825715239122257 32.50864879969749 C 21.825715239122257 32.50864879969749 21.82612473499055 26.67269069193515 21.82612473499055 26.67269069193515 C 21.826139343055054 26.46459196133324 21.892483975576244 26.2869732395124 22.025158632554028 26.139834526472463 C 22.15783328953192 25.992695813432505 22.3179784652683 25.919133039025983 22.50559415976334 25.9191462032529 C 22.693209854258413 25.91915936747979 22.853344705169523 25.992744614627423 22.985998712496794 26.139901944695904 C 23.118652719824123 26.287059274764367 23.1849724260118 26.46468730549603 23.184957831060235 26.67278603689096 C 23.184957831060235 26.67278603689096 23.184548335191955 32.50874414465328 23.184548335191955 32.50874414465328 C 23.18223338458261 34.48226142225024 22.55196121435442 36.166720221910325 21.293731824507148 37.56212054363345 C 20.035502434659932 38.95752086535659 18.516755025361764 39.65636564838 16.737489596612605 39.65865489270369 C 16.737489596612605 39.65865489270369 16.73748959661243 39.65865489270371 16.73748959661243 39.65865489270371  Z "/>
      <path class="st4" id="路径51" d="M 10.962905163442853 33.15632637403715 C 10.775289464311625 33.156313209471485 10.61515461071047 33.08272795893111 10.48250060263923 32.93557062241599 C 10.349846594568 32.78841328590088 10.283526891439184 32.61078524937501 10.28354149325284 32.40268651283831 C 10.28354149325284 32.40268651283831 10.283943610817202 26.67188080341401 10.283943610817202 26.67188080341401 C 10.283958212630852 26.463782066877318 10.35030284261477 26.286163339105062 10.482977500768918 26.13902462009724 C 10.615652158923067 25.99188590108944 10.775797337565686 25.91832312386833 10.963413036696915 25.918336288434 C 11.151028735827994 25.91834945299962 11.31116358942916 25.991934703540004 11.443817597500521 26.139092040055107 C 11.576471605571717 26.286249376570183 11.642791308700504 26.46387741309609 11.642776706886847 26.671976149632798 C 11.642776706886847 26.671976149632798 11.642374589322499 32.40278185905709 11.642374589322499 32.40278185905709 C 11.643807166551987 32.53792524799617 11.61426528767256 32.6641505171407 11.553748952684451 32.7814576664905 C 11.49323261769637 32.89876481584047 11.41008984418482 32.990971732816476 11.30432063214997 33.058078417418464 C 11.198551420115159 33.12518510202059 11.084746263879381 33.157934420893476 10.962905163442853 33.15632637403715  Z "/>
      <path class="st5" id="路径52" d="M 16.73803067223419 31.947479014579272 C 16.550414973103017 31.947465850013636 16.390280119501817 31.87388059947324 16.257626111430575 31.72672326295818 C 16.12497210335937 31.579565926443045 16.058652400230514 31.401937889917164 16.058667002044167 31.193839153380466 C 16.058667002044167 31.193839153380466 16.058984269113303 26.672286024843842 16.058984269113303 26.672286024843842 C 16.121477554421176 25.634338302757897 16.4951917960206 24.760051389425488 17.180126993911806 24.049425284846567 C 17.86506219180302 23.338799180267607 18.67646309480549 22.983519031958394 19.61432970291918 22.983584839918944 C 20.552196311032887 22.98365064787953 21.363547347650503 23.33904466099075 22.04838281277209 24.049766879252598 C 22.733218277893698 24.76048909751444 23.106809822377045 25.634828447589204 23.169157446222115 26.672784929476983 C 23.16914283815753 26.880883660078855 23.102798205636255 27.05850238189977 22.970123548658446 27.205641094939672 C 22.837448891680648 27.352779807979616 22.677303715944234 27.426342582386134 22.489688021449204 27.426329418159245 C 22.302072326954093 27.426316253932352 22.141937476042933 27.352731006784698 22.00928346871565 27.20557367671623 C 21.876629461388493 27.05841634664778 21.810309755200624 26.880788315916117 21.810324350152285 26.672689584521176 C 21.810371705442204 25.997578580638617 21.59521824323761 25.421320197251653 21.1648639635386 24.94391443436032 C 20.734509683839594 24.466508671468958 20.215002432930227 24.227784435873588 19.606342210810432 24.227741727574188 C 18.997681988690765 24.22769901927478 18.478141241427032 24.46635034724226 18.04771996901932 24.943695711476604 C 17.61729869661136 25.421041075710928 17.40206436705321 25.99726926035164 17.402016980344733 26.672380265398765 C 17.402016980344733 26.672380265398765 17.401699713275626 31.19393339393538 17.401699713275626 31.19393339393538 C 17.399682336918577 31.397722803842697 17.334474780653498 31.57251043117971 17.20607704448048 31.718296275946493 C 17.077679308307367 31.864082120713277 16.921663850891942 31.94047636692425 16.73803067223419 31.947479014579272 C 16.73803067223419 31.947479014579272 16.73803067223419 31.947479014579272 16.73803067223419 31.947479014579272  Z "/>
      <path class="st6" id="路径53" d="M 43.84381221097436 28.794808999766666 C 43.6570878381697 28.792428692037596 43.49770938424375 28.718004579872783 43.365676849196205 28.571536663272195 C 43.23364431414889 28.425068746671624 43.166568211344995 28.248279571770187 43.16444854078445 28.041169138567856 C 43.16444854078445 28.041169138567856 43.16454445873559 26.674187960173086 43.16454445873559 26.674187960173086 C 43.164591814025485 25.999076956290498 42.949438351820845 25.422818572903548 42.51908407212193 24.94541281001219 C 42.0887297924228 24.468007047120885 41.56922254151361 24.229282811525476 40.96056231939389 24.22924010322608 C 40.35190209727419 24.22919739492667 39.8323613500105 24.46784872289416 39.40194007760269 24.945194087128463 C 38.97151880519482 25.42253945136281 38.75628447563669 25.998767636003517 38.75623708892819 26.67387864105063 C 38.75622248086357 26.881977371652525 38.68987784834239 27.05959609347343 38.557203191364664 27.20673480651337 C 38.42452853438674 27.35387351955328 38.26438335865039 27.42743629395981 38.07676766415524 27.427423129732922 C 37.88915196966029 27.427409965506026 37.72901711874907 27.353824718358347 37.59636311142181 27.20666738828992 C 37.46370910409449 27.05951005822144 37.397389397906736 26.881882027489752 37.397403992858486 26.673783296094864 C 37.343761050298724 25.780741404463456 37.540885190231876 24.961971867851133 37.988776412657785 24.217474686257887 C 38.436667635083765 23.472977504664637 39.0426446890399 22.956810017625763 39.8067075745263 22.668972225141292 C 40.57077046001275 22.3811344326568 41.33481314481601 22.381188043789173 42.09883562893606 22.6691330585384 C 42.86285811305628 22.9570780732876 43.468762724455416 23.47333059529857 43.91654946313356 24.217890624571286 C 44.36433620181151 24.962450653843955 44.56134543742273 25.7812478458962 44.50757716996705 26.674282200728026 C 44.50757716996705 26.674282200728026 44.50748125201592 28.041263379122793 44.50748125201592 28.041263379122793 C 44.50751680449696 28.245987553017965 44.44304511381186 28.421572515185506 44.314066179960236 28.56801826562537 C 44.185087246108864 28.714464016065325 44.02833592311342 28.790060927445754 43.843812210974136 28.7948089997667 C 43.843812210974136 28.7948089997667 43.84381221097436 28.794808999766666 43.84381221097436 28.794808999766666  Z "/>
      <path class="st7" id="路径54" d="M 32.30086866206153 39.6597469395118 C 30.520060989841248 39.65962346389615 28.999710098341527 38.96159665893006 27.739815987562054 37.56566652461322 C 26.47992187678278 36.169736390296485 25.848954274394725 34.48415786808692 25.846913180398126 32.50893095798446 C 25.846913180398126 32.50893095798446 25.847322676266423 26.672972850222106 25.847322676266423 26.672972850222106 C 25.847337284331015 26.464874119620227 25.9136819168522 26.287255397799363 26.04635657383009 26.140116684759413 C 26.179031230807862 25.992977971719473 26.339176406544162 25.919415197312958 26.526792101039288 25.91942836153986 C 26.714407795534246 25.919441525766757 26.874542646445505 25.993026772914398 27.00719665377275 26.14018410298287 C 27.139850661100077 26.287341433051324 27.206170367287783 26.464969463783 27.206155772336118 26.673068195177922 C 27.206155772336118 26.673068195177922 27.20574627646783 32.50902630294023 27.20574627646783 32.50902630294023 C 27.2594981562724 34.02531195776417 27.779461048341016 35.30932551229147 28.76563495267364 36.36106696652214 C 29.75180885700609 37.41280842075283 30.92894364582498 37.938727145944554 32.29703931912995 37.93882314209725 C 33.66513499243497 37.938919138249936 34.8423435746968 37.41316561196217 35.828665065915274 36.361562563234024 C 36.81498655713375 35.30995951450589 37.33512963668579 34.02601894184208 37.389094304571415 32.50974084524259 C 37.38910575370356 32.346502877343084 37.43236844954002 32.198855782624925 37.518882392080826 32.06679956108808 C 37.60539633462167 31.93474333955117 37.71863883038118 31.843498485985293 37.858609879359264 31.79306500039027 C 37.998580928337304 31.742631514795285 38.13854843774965 31.74264133624861 38.27851240759634 31.793094464750276 C 38.41847637744287 31.843547593252083 38.53170606693317 31.93480833826311 38.61820147606721 32.0668766997836 C 38.70469688520127 32.198945061304094 38.74793886005921 32.34659822561769 38.747927400641004 32.50983619272442 C 38.74344620086261 34.48235545382698 38.11240759917533 36.16596402641773 36.854811595579235 37.56066191049671 C 35.59721559198289 38.95535979457562 34.079234614143814 39.65505480424729 32.30086866206166 39.659746939511805 C 32.30086866206166 39.659746939511805 32.30086866206153 39.6597469395118 32.30086866206153 39.6597469395118  Z "/>
      <path class="st8" id="路径55" d="M 38.07636554548425 33.158228863704835 C 37.95452422058142 33.15981981192126 37.84072366135645 33.12705452247449 37.73496386780889 33.059932995364605 C 37.62920407426154 32.992811468254764 37.54607424146671 32.90059288430925 37.48557436942461 32.783277243528076 C 37.4250744973825 32.66596160274705 37.39555033267243 32.53973218907299 37.39700187529431 32.40458900250601 C 37.39700187529431 32.40458900250601 37.397403992858685 26.67378329308174 37.397403992858685 26.67378329308174 C 37.39741544199069 26.510545325182203 37.44067813782719 26.362898230464026 37.527192080368096 26.23084200892717 C 37.613706022908985 26.098785787390344 37.72694851866838 26.007540933824412 37.86691956764649 25.957107448229394 C 38.00689061662456 25.906673962634343 38.14685812603689 25.906683784087704 38.28682209588342 25.957136912589423 C 38.42678606573003 26.00759004109113 38.54001575522037 26.09885078610223 38.62651116435444 26.230919147622714 C 38.7130065734885 26.36298750914323 38.756248548346434 26.510640673456816 38.756237088928216 26.673878640563526 C 38.756237088928216 26.673878640563526 38.75583497136387 32.40468434998777 38.75583497136387 32.40468434998777 C 38.75582036955029 32.61278308543589 38.68947573970064 32.7904018126383 38.55680108181477 32.937540531595054 C 38.424126423929025 33.08467925055185 38.26398124553174 33.15824202792179 38.07636554662287 33.15822886370492 C 38.07636554662287 33.15822886370492 38.07636554548425 33.158228863704835 38.07636554548425 33.158228863704835  Z "/>
      <path class="st9" id="路径56" d="M 32.30140973768327 31.948571061387376 C 32.114685364878675 31.946190753658314 31.955306910952746 31.871766641493423 31.823274375905306 31.725298724892873 C 31.691241840857916 31.578830808292295 31.624165738053982 31.402041633390887 31.622046067493343 31.194931200188563 C 31.622046067493343 31.194931200188563 31.62236333456248 26.673378071651946 31.62236333456248 26.673378071651946 C 31.6224106898524 25.998267067769348 31.407257227647882 25.422008684382423 30.976902947948748 24.94460292149105 C 30.546548668249763 24.467197158599742 30.02704141734039 24.22847292300434 29.418381195220636 24.22843021470495 C 28.809720973100944 24.228387506405547 28.290180225837155 24.467038834373017 27.85975895342933 24.944384198607334 C 27.429337681021593 25.421729562841676 27.214103351463475 25.9979577474824 27.214055964754973 26.673068752529492 C 27.21404135669033 26.881167483131385 27.147696724169105 27.05878620495229 27.015022067191317 27.205924917992228 C 26.88234741021353 27.35306363103214 26.72220223447701 27.42662640543867 26.53458653998214 27.42661324121178 C 26.346970845487043 27.426600076984883 26.186835994575837 27.35301482983721 26.0541819872486 27.205857499768776 C 25.92152797992126 27.058700169700305 25.855208273733435 26.881072138968612 25.855222868685235 26.672973407573732 C 25.917716153993002 25.6350256854878 26.291430395592524 24.76073877215538 26.976365593483745 24.050112667576425 C 27.66130079137489 23.33948656299747 28.472701694377403 22.984206414688302 29.410568302491036 22.984272222648855 C 30.348434910604798 22.984338030609404 31.159785947222367 23.33973204372062 31.844621412343965 24.050454261982473 C 32.52945687746552 24.76117648024433 32.903048421948796 25.63551583031912 32.965396045793995 26.67347231220688 C 32.965396045793995 26.67347231220688 32.96507877872489 31.19502544074348 32.96507877872489 31.19502544074348 C 32.96511433120597 31.399749614638615 32.90064264052069 31.575334576806185 32.77166370666926 31.721780327246094 C 32.64268477281776 31.868226077685975 32.485933449822426 31.943822989066433 32.30140973768313 31.948571061387376 C 32.30140973768313 31.948571061387376 32.30140973768327 31.948571061387376 32.30140973768327 31.948571061387376  Z "/>
      <path class="st10" id="圆2" d="M 24.52801206234489 26.366185780543073 C 25.64497033925253 26.36626415495753 26.550390848774374 27.3706761025845 26.55030391779419 28.60957885573958 C 26.550216986813986 29.84848160889464 25.644655531618078 30.852766484048125 24.527697254710425 30.852688109633682 C 23.4107389778027 30.852609735219232 22.505318468280915 29.84819778759223 22.505405399261097 28.60929503443716 C 22.505492330241285 27.370392281282093 23.411053785437193 26.366107406128634 24.52801206234489 26.366185780543073  Z "/>
      <path class="st11" id="复合路径17" d="M 24.521392620516874 8.11348141468966 C 23.00619063751969 8.113363374918087 21.592928725507065 8.534316859030293 20.28160688447897 9.376341867026248 C 18.97028504345106 10.218366875022205 17.937405756999564 11.368127763043974 17.182969025124837 12.825624531091524 C 16.42853229325011 14.283121299139083 16.05408447377409 15.852176478539949 16.059625566696802 17.532790069294098 C 16.059625566696802 17.532790069294098 16.058929546692468 27.452166312517782 16.058929546692468 27.452166312517782 C 16.156534614565157 26.57375962757502 16.5042171796779 25.841413514825874 17.10197724203055 25.255127974270305 C 17.699737304383145 24.668842433714758 18.39758549545146 24.375727658122695 19.195521815235583 24.375783647494128 C 19.99345813501959 24.375839636865532 20.691265184825912 24.669052342402292 21.28894296465471 25.255421764104376 C 21.886620744483615 25.841791185806446 22.23420053206072 26.57418608352895 22.33168232738618 27.4526064572719 C 22.33168232738618 27.4526064572719 26.708388927517625 27.452913560790535 26.708388927517625 27.452913560790535 C 26.805993995390303 26.57450687584776 27.15367656050299 25.842160763098626 27.751436622855646 25.25587522254307 C 28.34919668520835 24.66958968198751 29.04704487627661 24.376474906395476 29.844981196060733 24.376530895766876 C 30.642917515844687 24.376586885138313 31.340724565651175 24.669799590675034 31.93840234547993 25.25616901237713 C 32.53608012530876 25.842538434079202 32.88365991288593 26.57493333180171 32.98114170821141 27.45335370554467 C 32.98114170821141 27.45335370554467 32.98183772821572 17.533977462320983 32.98183772821572 17.533977462320983 C 32.98761467072684 15.853364665727554 32.61338704898266 14.284256953478753 31.859154862982955 12.826654325574594 C 31.104922676983403 11.369051697670432 30.072204752899687 10.219145871404145 28.761001090731874 9.376936846775742 C 27.449797428564086 8.534727822147348 26.036594605159017 8.113576011451986 24.521392620516874 8.113481414689668 C 24.521392620516874 8.113481414689668 24.521392620516874 8.11348141468966 24.521392620516874 8.11348141468966  Z M 27.878617780572633 13.196082928217105 C 28.213617659022976 13.201025961033167 28.49876094936722 13.335767940443887 28.734047651605444 13.600308866449248 C 28.969334353843475 13.864849792454617 29.086932233258548 14.182923552204386 29.086841289850575 14.554530145698571 C 29.086750346442464 14.926136739192756 28.96899679883963 15.244143440984026 28.733580647042114 15.50855025107234 C 28.49816449524443 15.772957061160678 28.212955293770094 15.907536531789432 27.877953042619026 15.912288662958627 C 27.542950791467923 15.9170407941278 27.254735327556652 15.790595565033843 27.013306650885205 15.532952975676722 C 26.77187797421387 15.275310386319592 26.646839026672442 14.96074778611231 26.638189808260986 14.589265175054837 C 26.63961366237446 14.345075900741456 26.695981898658243 14.117638988407165 26.807294517112357 13.906954438051972 C 26.918607135566464 13.696269887696792 27.06995031073913 13.530565519787245 27.26132404263044 13.40984133432336 C 27.45269777452167 13.28911714885947 27.658461534024234 13.22954794663939 27.878615321137985 13.231133727663115 C 27.878615321137985 13.231133727663115 27.878617780572633 13.196082928217105 27.878617780572633 13.196082928217105  Z M 21.787569425516047 13.195655533248045 C 22.125713999531538 13.195679260081468 22.414329142650082 13.328303839543782 22.653414854871507 13.593529271634937 C 22.892500567092853 13.858754703726104 23.01203026459249 14.17889825792976 23.0120039473702 14.553959934245917 C 23.0119776301479 14.929021610562085 22.89240300633964 15.249148387360933 22.653280075945585 15.514340264642438 C 22.414157145551496 15.779532141923976 22.125523393346583 15.912116217148032 21.787378819331128 15.912092490314599 C 21.4492342453157 15.912068763481166 21.160619102197327 15.779444184018864 20.921533389975828 15.514218751927697 C 20.68244767775439 15.24899331983654 20.562917980254845 14.92884976563289 20.56294429747714 14.553788089316726 C 20.57153963858334 14.185588508086433 20.69477499733922 13.872988494937175 20.93265037374468 13.61598804986893 C 21.170525750150222 13.358987604800692 21.455497947595884 13.2305603657424 21.78756696608141 13.230706332694066 C 21.78756696608141 13.230706332694066 21.787569425516047 13.195655533248045 21.787569425516047 13.195655533248045  Z M 24.83630586886058 23.711109341707836 C 23.64327849779086 23.714590619961623 22.57812669655954 23.306980443148323 21.640850465166455 22.48827881126793 C 20.703574233773494 21.669577179387524 20.096621116091292 20.61662004430478 19.819991112119947 19.32940740601972 C 19.819991112119947 19.32940740601972 29.845335291843373 19.33011086155246 29.845335291843373 19.33011086155246 C 29.573557182914755 20.6209117000567 28.969538614236317 21.678204322685243 28.03327958580806 22.5019887294381 C 27.097020557379896 23.32577313619095 26.031362036871915 23.73757604014237 24.836304024284583 23.737397441292362 C 24.836304024284583 23.737397441292362 24.83630586886058 23.711109341707836 24.83630586886058 23.711109341707836  Z "/>
      <path class="st12" id="复合路径18" d="M 19.62195936777204 26.839027328867513 C 19.73381693477035 26.85557781047254 19.826910526906655 26.910943191495367 19.901240144180857 27.005123471935896 C 19.975569761455112 27.099303752376443 20.01273017868292 27.20897835918456 20.012721395864396 27.33414729236026 C 20.01271261304589 27.459316225535986 19.9755368049501 27.568985616340782 19.90119397157693 27.66315546477457 C 19.82685113820382 27.757325313208373 19.73374977725926 27.812677629356035 19.62188988874334 27.82921241321756 C 19.516401780540033 27.8448053401572 19.418263167662634 27.821810854581337 19.32747405011128 27.76022895648989 C 19.23668493255972 27.698647058398475 19.173515769309166 27.612227119660393 19.13796656035955 27.50096914027563 C 19.10241735140981 27.389711160890876 19.102425157953373 27.27845567646077 19.137989979990248 27.167202686985334 C 19.17355480202697 27.055949697509895 19.236736092435397 26.969538624494923 19.327533851215524 26.90796946794043 C 19.418331609995487 26.84640031138594 19.51647344884769 26.823419598361625 19.62195936777204 26.839027328867513 M 19.622012245616904 26.08543514077805 C 19.357637747213705 26.083373046441938 19.121684427657488 26.173180606371503 18.91415228694844 26.354857820566764 C 18.706620146239363 26.536535034762025 18.57304411951554 26.770219835900846 18.513424206777017 27.055912223983206 C 18.45380429403832 27.341604612065563 18.48122178886301 27.616620396024327 18.5956766912509 27.880959575859446 C 18.710131593638753 28.145298755694583 18.886511183513647 28.340962279465884 19.124815460875418 28.46795014717331 C 19.363119738237092 28.594938014880764 19.611062007753947 28.62538762991821 19.868642269426097 28.559298992285672 C 20.12622253109817 28.493210354653154 20.336924717254973 28.345084070462413 20.500748827896544 28.114920139713554 C 20.66457293853812 27.884756208964642 20.745574082301385 27.623055241452196 20.743752259186454 27.329817237176112 C 20.743767855603267 27.107543846576284 20.693683619695168 26.90015643453635 20.593499551461957 26.707655001056324 C 20.4933154832289 26.515153567576284 20.356453702759595 26.36332841447754 20.182914210054115 26.25217954176009 C 20.009374717348564 26.141030669042642 19.82240739586956 26.08544920204863 19.622012245616904 26.08543514077805 C 19.622012245616904 26.08543514077805 19.622012245616904 26.08543514077805 19.622012245616904 26.08543514077805  Z "/>
      <path class="st13" id="复合路径19" d="M 19.621688829961183 30.694615267929706 C 19.744493284530254 30.697013933149037 19.848930801839305 30.746806211445133 19.93500138188837 30.84399210281807 C 20.021071961937437 30.941177994191023 20.064093020802023 31.057887360915124 20.064064558482176 31.194120202990497 C 20.064055050324452 31.32962635701434 20.020853895916222 31.4452850634707 19.93446109525771 31.5410963223595 C 19.848068294599248 31.63690758124831 19.74378771315749 31.684808924555078 19.62161935093247 31.684800352279765 C 19.498795825470783 31.684812700968486 19.39358016469569 31.63707833053701 19.305972368607364 31.541597240985297 C 19.21836457251905 31.446116151433564 19.173488054694666 31.3302695920191 19.171342815134064 31.19405756274211 C 19.173463396697763 31.057113384497107 19.218184926127662 30.94022015139472 19.305507403423764 30.843377863434952 C 19.39282988071975 30.746535575475185 19.49822368956565 30.69694804364012 19.621688829961183 30.694615267929706 M 19.621741707806027 29.941023079840242 C 19.357788273562004 29.93895716030543 19.122127400189004 30.02850090839881 18.914759087687113 30.209654324120507 C 18.70739077518521 30.390807739842245 18.57368505348165 30.623936340018126 18.51364192257634 30.90904012464827 C 18.453598791671087 31.194143909278367 18.480355064094496 31.468845135664502 18.59391073984647 31.733143803806634 C 18.70746641559866 31.99744247194876 18.88297669392326 32.19351278224122 19.120441574820287 32.32135473468398 C 19.35790645571739 32.44919668712673 19.60537109313072 32.48083979221591 19.862835487060654 32.41628404995162 C 20.12029988099061 32.3517283076873 20.331433499945142 32.2050978430293 20.496236343924622 31.976392655977648 C 20.661039187903945 31.747687468925974 20.743454108768024 31.48694587563343 20.743481106516914 31.194167876099876 C 20.744914660559715 30.970852571389486 20.69571248527481 30.762230019876363 20.59587458066196 30.568300221560605 C 20.49603667604914 30.374370423244812 20.35905661908682 30.221343930843034 20.184934409775206 30.109220744355326 C 20.010812200463533 29.997097557867598 19.823081299807235 29.941031669695906 19.621741707806027 29.941023079840242 C 19.621741707806027 29.941023079840242 19.621741707806027 29.941023079840242 19.621741707806027 29.941023079840242  Z "/>
      <path class="st14" id="复合路径20" d="M 18.499590968651056 34.55012449092758 C 18.622395423220055 34.55252315614689 18.726832940529082 34.60231543444302 18.812903520578093 34.699501325815895 C 18.898974100627136 34.7966872171889 18.941995159491764 34.91339658391299 18.941966697171914 35.049629425988314 C 18.92704364036507 35.17369933956002 18.877126485376067 35.276957277409736 18.7922152322049 35.359403239537635 C 18.707303979033643 35.44184920166546 18.60842403844678 35.483068223564025 18.495575410444072 35.48306030523318 C 18.382726782441363 35.48305238690236 18.283852627317483 35.44181948904999 18.198952945072676 35.3593616116762 C 18.11405326282768 35.27690373430236 18.064150599078033 35.173638792323665 18.049244953823823 35.04956678573991 C 18.04925121435734 34.96034436838652 18.069367132212363 34.8771001307804 18.10959270738925 34.79983407292165 C 18.149818282566144 34.72256801506292 18.204764309872672 34.66163182585434 18.27443078930909 34.617025505295985 C 18.344097268745532 34.57241918473751 18.419150661859547 34.550118846614744 18.499590968651056 34.55012449092758 M 18.499643231637247 33.80529500269962 C 18.18985917028113 33.80527326585868 17.9254334101967 33.92673738638653 17.706365951383987 34.16968736428315 C 17.48729849257139 34.412637342179806 17.377752708179315 34.70591477640845 17.37772859820791 35.049519666969 C 17.37770448823653 35.393124557529624 17.48720911433296 35.68641736202588 17.706242476497042 35.92939808045786 C 17.925275838661214 36.17237879888963 18.18968455042139 36.29388002652607 18.499468611777495 36.29390176336702 C 18.80925267313358 36.293923500207974 19.07367843321797 36.17245937968013 19.29274589203066 35.92950940178361 C 19.511813350843198 35.68655942388692 19.621359135235227 35.39328198965832 19.62138324520661 35.049677099097686 C 19.621398841623424 34.82740370849788 19.57131460571532 34.6200162964579 19.471130537482328 34.42751486297784 C 19.370946469249077 34.23501342949784 19.23408468877981 34.083188276399085 19.060545196074266 33.97203940368165 C 18.887005703368708 33.86089053096416 18.700038381889723 33.805309063970206 18.499643231637247 33.80529500269962 C 18.499643231637247 33.80529500269962 18.499643231637247 33.80529500269962 18.499643231637247 33.80529500269962  Z "/>
      <path class="st15" id="复合路径21" d="M 13.783717170123943 26.83861767272985 C 13.889205278327337 26.823024745790185 13.987343891204715 26.846019231366082 14.07813300875623 26.907601129457483 C 14.168922126307622 26.969183027548876 14.232091289558218 27.055602966286973 14.267640498507882 27.166860945671754 C 14.30318970745749 27.278118925056525 14.303181900913923 27.38937440948664 14.267617078877187 27.500627398962042 C 14.232052256840403 27.611880388437477 14.16887096643195 27.698291461452435 14.07807320765197 27.75986061800694 C 13.987275448871863 27.821429774561476 13.889133610019677 27.844410487585787 13.783647691095238 27.8288027570799 C 13.671790124096924 27.812252275474844 13.578696531960714 27.756886894452023 13.50436691468649 27.662706614011494 C 13.430037297412353 27.568526333570972 13.39287688018452 27.458851726762823 13.392885663003037 27.3336827935871 C 13.392894445821563 27.20851386041138 13.430070253917378 27.098844469606643 13.50441308729043 27.004674621172835 C 13.578755920663554 26.910504772739028 13.671857281608027 26.855152456591348 13.783717170123943 26.83861767272985 M 13.783770047968797 26.08502548464038 C 13.519395549565429 26.082963390304275 13.283442230009268 26.17277095023384 13.075910089300242 26.354448164429094 C 12.868377948591128 26.536125378624376 12.734801921867358 26.769810179763184 12.675182009128699 27.055502567845544 C 12.615562096390077 27.341194955927897 12.64297959121476 27.616210739886643 12.757434493602728 27.880549919721766 C 12.871889395990609 28.144889099556934 13.048268985865501 28.340552623328204 13.286573263227124 28.46754049103564 C 13.524877540588935 28.59452835874309 13.772819810105755 28.624977973780545 14.030400071777892 28.558889336148003 C 14.287980333449871 28.492800698515495 14.498682519606854 28.344674414324764 14.66250663024842 28.114510483575888 C 14.82633074088995 27.884346552826994 14.90733188465331 27.62264558531453 14.905510061538294 27.329407581038453 C 14.905534171509686 26.985802690477854 14.796029545413274 26.692509885981597 14.57699618324911 26.44952916754968 C 14.357962821084982 26.20654844911777 14.093554109324925 26.08504722148134 13.783770047968797 26.08502548464038  Z "/>
      <path class="st16" id="复合路径22" d="M 13.783446632313055 30.694205611792036 C 13.906911444121851 30.69655571401394 14.012298293041873 30.74615803584698 14.099607179073276 30.843012577291162 C 14.186916065104596 30.939867118735336 14.231621189831165 31.05676662670205 14.233722553252896 31.193711101191298 C 14.231558198338789 31.32992282807392 14.186665423578614 31.445763088581856 14.099044228972517 31.541231882715024 C 14.01142303436647 31.63670067684815 13.906200675803781 31.68442028132384 13.783377153284357 31.684390696142117 C 13.6612087910594 31.68438212386682 13.556934932900475 31.636466146770765 13.47055557880759 31.540642764853942 C 13.384176224714622 31.444819382937112 13.340991301747156 31.329154614966747 13.341000809904887 31.19364846094289 C 13.340991465880657 31.05741561621469 13.38402890278174 30.940712288018844 13.470113120607875 30.84353847635532 C 13.55619733843394 30.74636466469196 13.66064184233582 30.696587043170858 13.783446632313282 30.69420561179203 M 13.78349951015814 29.940613423702594 C 13.519546075913986 29.93854750416775 13.283885202540919 30.028091252261163 13.076516890039107 30.20924466798286 C 12.86914857753727 30.390398083704596 12.73544285583374 30.623526683880485 12.675399724928308 30.9086304685106 C 12.615356594023053 31.193734253140725 12.642112866446478 31.46843547952688 12.755668542198565 31.732734147668943 C 12.869224217950697 31.99703281581111 13.044734496275245 32.19310312610355 13.282199377172267 32.32094507854633 C 13.51966425806933 32.44878703098905 13.767128895482816 32.48043013607825 14.0245932894126 32.41587439381396 C 14.282057683342584 32.35131865154962 14.493191302297214 32.204688186891644 14.657994146276552 31.975982999839978 C 14.822796990255931 31.74727781278836 14.905211911120086 31.486536219495747 14.905238908868961 31.193758219962206 C 14.906672462911821 30.97044291525181 14.857470287626821 30.7618203637387 14.757632383013995 30.567890565422942 C 14.657794478401165 30.373960767107164 14.520814421438796 30.220934274705357 14.346692212127204 30.108811088217635 C 14.172570002815542 29.996687901729928 13.984839102159091 29.940622013558258 13.78349951015814 29.940613423702594 C 13.78349951015814 29.940613423702594 13.78349951015814 29.940613423702594 13.78349951015814 29.940613423702594  Z "/>
      <path class="st17" id="复合路径23" d="M 14.905003418001558 34.5498722669186 C 14.98544372479316 34.549877911231434 15.060493987640251 34.572188781785336 15.130154206543223 34.616804878580425 C 15.199814425446208 34.66142097537543 15.254751900704951 34.7223648748587 15.294966632319671 34.79963657703026 C 15.335181363934367 34.87690827920185 15.355285599474977 34.960155338964405 15.355279338941472 35.04937775631781 C 15.340356282134705 35.17344766988954 15.290439127145595 35.27670560773925 15.205527873974402 35.35915156986715 C 15.120616620803201 35.44159753199495 15.021736680216343 35.48281655389347 14.908888052213632 35.482808635562684 C 14.796039424210864 35.48280071723184 14.697165269087122 35.44156781937952 14.612265586842254 35.35910994200572 C 14.527365904597245 35.27665206463185 14.477463240847706 35.17338712265315 14.462557595593323 35.04931511606942 C 14.462548251569192 34.91308227134119 14.5055856884702 34.7963789431454 14.591669906296344 34.69920513148191 C 14.677754124122554 34.60203131981854 14.782198628024267 34.55225369829743 14.905003418001757 34.549872266918584 M 14.905055680987953 33.80504277869064 C 14.595795010964355 33.807436801761824 14.332456419486432 33.93061570604566 14.115039906554111 34.17457949154209 C 13.897623393621782 34.418543277038566 13.78962780922294 34.712039674962945 13.791053153357392 35.055068685315234 C 13.792478497491881 35.398097695667445 13.902908482950851 35.69047397660732 14.122343109734025 35.93219752813493 C 14.341777736517253 36.17392107966244 14.60612874260499 36.29439391761377 14.915396127997248 36.29361604198882 C 15.224663513389537 36.292838166363914 15.488522384883474 36.17103676417323 15.706972742478964 35.92821183541691 C 15.925423100074642 35.68538690666044 16.0346641482405 35.39245810466392 16.034695886976493 35.049425429427174 C 16.0347165495102 34.82610448795932 15.984195681455903 34.61787006426484 15.883133282813608 34.42472215834358 C 15.782070884171288 34.23157425242235 15.644126028225678 34.07961774044093 15.46929871497684 33.96885262239938 C 15.294471401728114 33.858087504357805 15.106390390397289 33.80348422312159 14.905055680984518 33.80504277869068 C 14.905055680984518 33.80504277869068 14.905055680987953 33.80504277869064 14.905055680987953 33.80504277869064  Z "/>
      <path class="st18" id="复合路径24" d="M 29.48139950669628 26.83971914329214 C 29.58686534698096 26.839744547432907 29.680737070962433 26.876348616197454 29.763014678640918 26.94953134958586 C 29.845292286319278 27.022714082974232 29.897897747441608 27.11639577588176 29.92083106200802 27.230576428308368 C 29.943764376574357 27.344757080735015 29.931986638298593 27.454348927648287 29.88549784718061 27.559351969048187 C 29.83900905606277 27.664355010448116 29.768023726063152 27.741697985360503 29.67254185718177 27.791380893785348 C 29.577059988300274 27.841063802210222 29.478060850145823 27.852170318954062 29.375544442718308 27.824700444016898 C 29.273028035290796 27.797230569079733 29.189519256520356 27.737219981477686 29.12501810640712 27.64466868121066 C 29.060516956294038 27.552117380943667 29.02919562306739 27.447360733287766 29.03105410672762 27.330398738242963 C 29.031047578560408 27.24168786432467 29.051243908814712 27.15905122480066 29.091643097490813 27.082488819670928 C 29.13204228616696 27.005926414541246 29.187109922238403 26.945926766794592 29.25684600570517 26.902489876431048 C 29.32658208917193 26.859052986067464 29.40143325616901 26.838129408354504 29.48139950669628 26.83971914329214 M 29.481452384541143 26.08612695520267 C 29.216296228162523 26.079943703715497 28.978645021248642 26.16658301832486 28.768498763799364 26.346044899030854 C 28.55835250635012 26.525506779736823 28.422078846185748 26.758193922344226 28.35967778330605 27.044106326852972 C 28.297276720426286 27.33001873136177 28.322516715627746 27.60607135480918 28.43539776891049 27.872264197195246 C 28.54827882219301 28.13845703958131 28.723894332850623 28.3360560738632 28.962244300883444 28.465061300040883 C 29.200594268916248 28.59406652621857 29.44908804860056 28.626013631070588 29.70772563993617 28.56090261459696 C 29.9663632312719 28.495791598123354 30.17807763295413 28.347988857887856 30.342868844982856 28.117494393890432 C 30.507660057011492 27.886999929893072 30.58916777977477 27.624671112904164 30.5873920132726 27.330507942923774 C 30.585263445472545 26.98789675935452 30.474996599757993 26.695449270910224 30.25659147612884 26.45316547759092 C 30.038186352499732 26.210881684271587 29.77453986035776 26.088535140583197 29.465651999703073 26.086125846525693 C 29.465651999703073 26.086125846525693 29.481452384541143 26.08612695520267 29.481452384541143 26.08612695520267  Z "/>
      <path class="st19" id="复合路径25" d="M 29.48112896888541 30.695307082354333 C 29.6039334234544 30.697705747573664 29.70837094076343 30.747498025869746 29.79444152081249 30.844683917242712 C 29.88051210086158 30.941869808615643 29.923533159726134 31.05857917533976 29.92350469740631 31.194812017415103 C 29.908581640599483 31.318881930986713 29.85866448561043 31.422139868836503 29.77375323243938 31.504585830964423 C 29.688841979268087 31.587031793092272 29.589962038681186 31.62825081499078 29.477113410678452 31.628242896659977 C 29.36426478267572 31.628234978329168 29.265390627551962 31.587002080476807 29.18049094530699 31.50454420310301 C 29.095591263062147 31.42208632572909 29.04568859931252 31.31882138375034 29.030782954058097 31.19474937716671 C 29.030789214591596 31.105526959813233 29.050905132446868 31.02228272220713 29.091130707623552 30.945016664348444 C 29.13135628280042 30.867750606489693 29.18630231010715 30.806814417281096 29.255968789543502 30.762208096722723 C 29.325635268979834 30.7176017761643 29.400688662093938 30.69530143804149 29.48112896888541 30.695307082354333 M 29.481181846730273 29.941714894264866 C 29.21644714660096 29.93553473751542 28.9790914006801 30.021914435472702 28.76911460896747 30.200853988136807 C 28.55913781725486 30.379793540800918 28.422739301534694 30.61192247343493 28.359919061807073 30.89724078603887 C 28.29709882207949 31.182559098642876 28.321678635723067 31.45829074617189 28.433658502737824 31.724435728626034 C 28.545638369752492 31.99058071108022 28.72038035816808 32.188581520339866 28.957884467984503 32.31843815640483 C 29.195388577800884 32.44829479246995 29.443398896805213 32.481436057226375 29.701915424997594 32.417861950674144 C 29.960431953189737 32.35428784412192 30.17257560324286 32.20798601023728 30.338346375156807 31.978956449020224 C 30.504117147070605 31.749926887803184 30.587041975552776 31.48856093207894 30.58712086060308 31.19485858184754 C 30.58715261123666 30.850537766153373 30.477809422340666 30.556207501029675 30.259091293915272 30.311867786476384 C 30.040373165489815 30.067528071923064 29.775803221482352 29.94414340496024 29.465381461892918 29.94171378558791 C 29.465381461892918 29.94171378558791 29.481181846730273 29.941714894264866 29.481181846730273 29.941714894264866  Z "/>
      <path class="st20" id="复合路径26" d="M 30.586885369735878 34.550972628803926 C 30.70968982430493 34.553371294023236 30.814127341613823 34.60316357231934 30.90019792166294 34.70034946369223 C 30.986268501712107 34.797535355065286 31.029289560576647 34.914244721789366 31.029261098256782 35.05047756386465 C 31.029254947557188 35.13813467565048 31.00949194054163 35.21991848803541 30.96997207720992 35.295829001019406 C 30.930452213878418 35.371739514003465 30.876470151963165 35.43160664726096 30.80802589146418 35.47543040079212 C 30.739581630965137 35.51925415432314 30.665844964046297 35.541163258443774 30.586815890707168 35.54115771315396 C 30.46399236524535 35.541170061842706 30.358776704470305 35.49343569141131 30.271168908382002 35.39795460185949 C 30.18356111229366 35.30247351230778 30.13868459446927 35.186626952893405 30.13653935490861 35.05041492361626 C 30.13865993647239 34.91347074537125 30.183381465902368 34.796577512268925 30.270703943198384 34.69973522430918 C 30.358026420494397 34.60289293634942 30.463420229340223 34.55330540451438 30.586885369735878 34.550972628803926 M 30.586937632722066 33.80614314057596 C 30.27715357136603 33.80612140373501 30.012727811281565 33.9275855242629 29.79366035246897 34.170535502159495 C 29.57459289365622 34.413485480056195 29.465047109264177 34.706762914284795 29.465022999292785 35.05036780484534 C 29.46499888932139 35.39397269540596 29.574503515417792 35.68726549990224 29.793536877582017 35.930246218334176 C 30.012570239746086 36.173226936765985 30.27697895150628 36.29472816440243 30.586763012862328 36.29474990124339 C 30.896547074218475 36.29477163808432 31.16097283430278 36.17330751755646 31.380040293115492 35.930357539659944 C 31.599107751928234 35.68740756176328 31.70865353632021 35.39413012753465 31.70867764629159 35.050525236974046 C 31.71012300242212 34.827727013747996 31.660840589300285 34.619715564511225 31.560830406925728 34.42649088926381 C 31.460820224551266 34.23326621401645 31.323719347997447 34.08117582397925 31.1495277772641 33.97021971915214 C 30.975336206530763 33.85926361432513 30.787806158350104 33.80457142146642 30.586937632722066 33.80614314057596 C 30.586937632722066 33.80614314057596 30.586937632722066 33.80614314057596 30.586937632722066 33.80614314057596  Z "/>
      <path class="st21" id="复合路径27" d="M 35.32754189676349 26.840129353768273 C 35.43303000496684 26.82453642682863 35.53116861784426 26.84753091240451 35.621957735395696 26.909112810495916 C 35.71274685294725 26.970694708587313 35.77591601619774 27.0571146473254 35.81146522514746 27.16837262671018 C 35.847014434097076 27.279630606094944 35.84700662755351 27.390886090525054 35.811441805516736 27.50213908000046 C 35.77587698347993 27.613392069475907 35.71269569307158 27.699803142490868 35.62189793429144 27.761372299045373 C 35.5311001755114 27.82294145559991 35.432958336659155 27.845922168624217 35.327472417734754 27.83031443811832 C 35.21561485073647 27.813763956513284 35.12252125860033 27.758398575490453 35.04819164132611 27.664218295049924 C 34.97386202405188 27.570038014609395 34.93670160682403 27.460363407801257 34.936710389642585 27.335194474625524 C 34.936719172461096 27.21002554144982 34.973894980556864 27.100356150645084 35.048237813930044 27.006186302211248 C 35.12258064730321 26.91201645377744 35.2156820082476 26.856664137629757 35.32754189676349 26.840129353768273 M 35.32759477460833 26.086537165678827 C 35.06363474209503 26.08652580302877 34.828546166634624 26.177901625221935 34.62232904822703 26.36066463225831 C 34.41611192981952 26.543427639294716 34.28388442909785 26.777591186162038 34.22564654606181 27.063155272860282 C 34.167408663025995 27.348719359558565 34.195902240748865 27.623205534084697 34.31112727923073 27.88661379643867 C 34.4263523177125 28.150022058792636 34.603098776994955 28.344721420894068 34.84136665707777 28.47071188274294 C 35.0796345371607 28.596702344591815 35.327293304118186 28.62641850356878 35.584342957950426 28.559860359673813 C 35.84139261178257 28.493302215778826 36.05159336181728 28.34503199862157 36.21494520805474 28.11504970820197 C 36.37829705429202 27.885067417782377 36.45906031180617 27.62369078718683 36.45723498059688 27.330919816415367 C 36.45508830450814 26.986607266878462 36.3438856476881 26.693135361792 36.12362701013642 26.450504101156017 C 35.90336837258482 26.207872840520054 35.638024294075535 26.086550528694282 35.32759477460833 26.086537165678827 C 35.32759477460833 26.086537165678827 35.32759477460833 26.086537165678827 35.32759477460833 26.086537165678827  Z "/>
      <path class="st22" id="复合路径28" d="M 35.32727135895263 30.695717292830466 C 35.45073617076142 30.69806739505237 35.55612301968148 30.747669716885405 35.6434319057129 30.844524258329564 C 35.73074079174418 30.941378799773744 35.77544591647076 31.058278307740473 35.77754727989253 31.195222782229727 C 35.7753829249784 31.33143450911235 35.730490150218216 31.44727476962028 35.642868955612144 31.542743563753454 C 35.555247761006086 31.638212357886573 35.45002540244339 31.685931962362297 35.32720187992389 31.685902377180554 C 35.24817280658496 31.685896831890744 35.17443921501561 31.66397738011844 35.106001105216265 31.620144021863688 C 35.03756299541699 31.576310663608908 34.98358933551371 31.51643595534464 34.944080125506176 31.440519897070757 C 34.904570915498695 31.364603838797002 34.884819385844864 31.28281725376715 34.884825536544454 31.195160141981347 C 34.884816192520304 31.0589272972531 34.92785362942121 30.942223969057252 35.01393784724743 30.84505015739378 C 35.10002206507349 30.74787634573042 35.20446656897542 30.698098724209274 35.327271358952814 30.695717292830466 M 35.32732423679764 29.94212510474102 C 35.015358597544676 29.942103214823714 34.74907068422026 30.06442271648205 34.528460496824366 30.309083609715998 C 34.30785030942853 30.553744502949897 34.197533075850686 30.849087271222373 34.197508796090744 31.19511191453347 C 34.197484516330846 31.541136557844467 34.30776030176584 31.836494804625907 34.52833615239598 32.08118665487772 C 34.74891200302608 32.32587850512961 35.0151827479676 32.44823537521417 35.32714838722056 32.44825726513146 C 35.639114026473564 32.44827915504875 35.905401939798 32.32595965339048 36.12601212719382 32.0812987601565 C 36.34662231458972 31.83663786692258 36.456939548167554 31.541295098650124 36.45696382792754 31.195270455339113 C 36.45697953417823 30.971431759171637 36.406542592383346 30.762583872399006 36.30565300254301 30.5687267950212 C 36.20476341270249 30.374869717643378 36.06693781687777 30.221975373325655 35.89217621506869 30.110043762067946 C 35.717414613259606 29.998112150810265 35.52913062050261 29.942139265034587 35.32732423679745 29.942125104741017 C 35.32732423679745 29.942125104741017 35.32732423679764 29.94212510474102 35.32732423679764 29.94212510474102  Z "/>
      <path class="st23" id="复合路径29" d="M 34.18937311280429 34.55122540715137 C 34.31217756737334 34.55362407237071 34.41661508468232 34.6034163506668 34.50268566473146 34.700602242039714 C 34.58875624478053 34.797788133412766 34.63177730364514 34.914497500136854 34.631748841325205 35.05073034221209 C 34.63173932482553 35.18623648970731 34.58853816685766 35.3018951889503 34.50214536742146 35.39770643994118 C 34.41575256798511 35.49351769093202 34.311471990103996 35.54141903029003 34.18930363377798 35.541410458015136 C 34.06713527745204 35.541401885740264 33.96286142285308 35.493485912593435 33.87648206998142 35.39766253857476 C 33.790102717109605 35.301839164556114 33.74691779058119 35.186174403806014 33.74692729039613 35.05066825632451 C 33.74691794637195 34.91443541159626 33.789955383273025 34.79773208340046 33.87603960109912 34.70055827173696 C 33.962123818925264 34.60338446007351 34.06656832282715 34.553606838552426 34.189373112804546 34.55122540717362 M 34.18942537579075 33.806395918945704 C 33.880706777662496 33.81119759235327 33.618466587239524 33.93607837171934 33.40270480452189 34.18103825704382 C 33.18694302180438 34.42599814236829 33.08049456469 34.71969903990378 33.08335943317897 35.062140949650114 C 33.08622430166771 35.404582859396456 33.19756817851409 35.696038623871566 33.41739106371814 35.93650824307544 C 33.63721394892201 36.17697786227922 33.90149823579749 36.296430913820515 34.210243924344525 36.29486739769931 C 34.51898961289163 36.2933038815779 34.78228267965905 36.17117913054986 35.00012312464649 35.92849314461504 C 35.217963569633966 35.685807158680184 35.32691111948456 35.39323581847461 35.32696577419803 35.050779123998474 C 35.32841113032865 34.827980900772445 35.279128717206646 34.61996945153565 35.17911853483224 34.42674477628821 C 35.07910835245781 34.23352010104092 34.94200747590391 34.08142971100365 34.76781590517052 33.970473606176554 C 34.59362433443724 33.85951750134956 34.40609428625655 33.80482530849087 34.20522576062858 33.80639702760038 C 34.20522576062858 33.80639702760038 34.18942537579075 33.806395918945704 34.18942537579075 33.806395918945704  Z "/>
    </g>
  </g>
</svg>