<svg xmlns="http://www.w3.org/2000/svg" xmlns:xlink="http://www.w3.org/1999/xlink" viewBox="0 0 1095.73 552.9"><defs><style>.cls-1{fill:url(#未命名的渐变_129);}.cls-2{fill:url(#未命名的渐变_33);}.cls-3{fill:url(#未命名的渐变_135);}.cls-4{fill:url(#未命名的渐变_33-2);}.cls-5{fill:url(#未命名的渐变_134);}.cls-6{fill:url(#未命名的渐变_33-3);}</style><linearGradient id="未命名的渐变_129" x1="52.76" y1="203.1" x2="52.76" y2="375.92" gradientUnits="userSpaceOnUse"><stop offset="0" stop-color="#f7f8f8" stop-opacity="0.4"/><stop offset="1" stop-color="#f7f8f8" stop-opacity="0"/></linearGradient><linearGradient id="未命名的渐变_33" x1="816.07" y1="284.83" x2="816.07" y2="367.27" gradientUnits="userSpaceOnUse"><stop offset="0" stop-color="#f7f8f8"/><stop offset="1" stop-color="#f7f8f8" stop-opacity="0"/></linearGradient><linearGradient id="未命名的渐变_135" x1="884.49" y1="244.58" x2="884.49" y2="322" gradientUnits="userSpaceOnUse"><stop offset="0" stop-color="#f7f8f8" stop-opacity="0.9"/><stop offset="1" stop-color="#f7f8f8" stop-opacity="0"/></linearGradient><linearGradient id="未命名的渐变_33-2" x1="947.31" y1="433.33" x2="947.31" y2="544.67" xlink:href="#未命名的渐变_33"/><linearGradient id="未命名的渐变_134" x1="1062.8" y1="4.56" x2="1062.8" y2="145.73" gradientUnits="userSpaceOnUse"><stop offset="0" stop-color="#f7f8f8" stop-opacity="0.8"/><stop offset="1" stop-color="#f7f8f8" stop-opacity="0"/></linearGradient><linearGradient id="未命名的渐变_33-3" x1="1019.98" y1="466.08" x2="1019.98" y2="555.44" xlink:href="#未命名的渐变_33"/></defs><g id="图层_2" data-name="图层 2"><g id="图层_1-2" data-name="图层 1"><polygon class="cls-1" points="0.31 223.36 0 328.78 59.64 363.21 105.24 336.71 105.53 231.29 45.88 196.84 0.31 223.36"/><polygon class="cls-2" points="788.25 290.56 788.12 341.43 825.75 363.15 843.88 352.61 844.03 301.75 806.4 280.02 788.25 290.56"/><polygon class="cls-3" points="858.36 249.96 858.23 297.74 893.57 318.14 910.61 308.24 910.75 260.47 875.41 240.06 858.36 249.96"/><polygon class="cls-4" points="971.98 535.24 972.27 439.85 942.94 422.93 922.61 434.75 922.34 530.12 951.66 547.05 971.98 535.24"/><polygon class="cls-5" points="1069.16 0 1030.12 22.69 1029.86 126.4 1056.43 141.72 1095.44 119.04 1095.73 15.35 1069.16 0"/><polygon class="cls-6" points="1026.34 463.19 987.3 485.88 987.04 537.58 1013.61 552.9 1052.63 530.22 1052.91 478.54 1026.34 463.19"/></g></g></svg>