<svg xmlns="http://www.w3.org/2000/svg" xmlns:xlink="http://www.w3.org/1999/xlink" viewBox="0 0 389.8 678.65"><defs><style>.cls-1,.cls-12,.cls-13,.cls-14,.cls-18,.cls-19{fill:none;}.cls-2{clip-path:url(#clip-path);}.cls-3{fill:url(#未命名的渐变_58);}.cls-4{fill:url(#未命名的渐变_58-2);}.cls-5{fill:url(#未命名的渐变_69);}.cls-6{fill:url(#未命名的渐变_114);}.cls-7{fill:#89617b;}.cls-8{fill:#589c91;}.cls-9{fill:#1f3439;}.cls-10{fill:#86999f;}.cls-11{fill:url(#未命名的渐变_70);}.cls-12,.cls-13,.cls-14,.cls-18,.cls-19{stroke-miterlimit:10;}.cls-12{stroke:url(#未命名的渐变_118);}.cls-13{stroke:url(#未命名的渐变_119);}.cls-14{stroke:url(#未命名的渐变_116);}.cls-15{fill:url(#未命名的渐变_58-3);}.cls-16{fill:url(#未命名的渐变_58-4);}.cls-17{fill:url(#未命名的渐变_58-5);}.cls-18{stroke:url(#未命名的渐变_125);}.cls-19{stroke:url(#未命名的渐变_128);}</style><clipPath id="clip-path" transform="translate(-64.53 -7.23)"><rect class="cls-1" width="350" height="659.25"/></clipPath><linearGradient id="未命名的渐变_58" x1="198.29" y1="355.59" x2="198.29" y2="538.36" gradientUnits="userSpaceOnUse"><stop offset="0" stop-color="#21364d"/><stop offset="1" stop-color="#1a1a23" stop-opacity="0"/></linearGradient><linearGradient id="未命名的渐变_58-2" x1="230.78" y1="494.71" x2="230.78" y2="562.54" xlink:href="#未命名的渐变_58"/><linearGradient id="未命名的渐变_69" x1="221.84" y1="444.51" x2="221.84" y2="520.45" gradientUnits="userSpaceOnUse"><stop offset="0" stop-color="gray" stop-opacity="0.5"/><stop offset="1" stop-color="#1a1a23" stop-opacity="0"/></linearGradient><linearGradient id="未命名的渐变_114" x1="108.28" y1="348.53" x2="219.23" y2="348.53" gradientUnits="userSpaceOnUse"><stop offset="0" stop-color="#779bcc" stop-opacity="0.2"/><stop offset="1" stop-color="#86969d" stop-opacity="0.7"/></linearGradient><linearGradient id="未命名的渐变_70" x1="54.6" y1="18.61" x2="54.6" y2="217.77" gradientUnits="userSpaceOnUse"><stop offset="0" stop-color="#21364d" stop-opacity="0.5"/><stop offset="1" stop-color="#1a1a23" stop-opacity="0"/></linearGradient><linearGradient id="未命名的渐变_118" x1="238.44" y1="463.48" x2="280.43" y2="682.84" gradientUnits="userSpaceOnUse"><stop offset="0.18" stop-color="#779bcc" stop-opacity="0"/><stop offset="0.99" stop-color="#86969d" stop-opacity="0.7"/></linearGradient><linearGradient id="未命名的渐变_119" x1="238.44" y1="436.02" x2="280.43" y2="655.38" gradientUnits="userSpaceOnUse"><stop offset="0.09" stop-color="#779bcc" stop-opacity="0"/><stop offset="0.99" stop-color="#86969d" stop-opacity="0.7"/></linearGradient><linearGradient id="未命名的渐变_116" x1="238.44" y1="408.56" x2="280.43" y2="627.92" gradientUnits="userSpaceOnUse"><stop offset="0" stop-color="#779bcc" stop-opacity="0"/><stop offset="0.99" stop-color="#86969d" stop-opacity="0.7"/></linearGradient><linearGradient id="未命名的渐变_58-3" x1="63.86" y1="446.49" x2="63.86" y2="557.64" xlink:href="#未命名的渐变_58"/><linearGradient id="未命名的渐变_58-4" x1="124.08" y1="486.91" x2="124.08" y2="598.06" xlink:href="#未命名的渐变_58"/><linearGradient id="未命名的渐变_58-5" x1="184.31" y1="527.33" x2="184.31" y2="638.47" xlink:href="#未命名的渐变_58"/><linearGradient id="未命名的渐变_125" x1="116.62" y1="127.65" x2="125.39" y2="173.48" gradientUnits="userSpaceOnUse"><stop offset="0.18" stop-color="#779bcc" stop-opacity="0"/><stop offset="0.99" stop-color="#86969d" stop-opacity="0.3"/></linearGradient><linearGradient id="未命名的渐变_128" x1="182.68" y1="135.57" x2="217.75" y2="318.86" gradientUnits="userSpaceOnUse"><stop offset="0" stop-color="#779bcc" stop-opacity="0.3"/><stop offset="0.99" stop-color="#86969d" stop-opacity="0"/></linearGradient></defs><g id="图层_2" data-name="图层 2"><g id="图层_1-2" data-name="图层 1"><g class="cls-2"><polygon class="cls-3" points="238.79 522.87 239.27 366.3 191.13 338.51 157.74 357.93 157.31 514.47 205.43 542.26 238.79 522.87"/><polygon class="cls-4" points="255.42 552.19 255.71 505.26 226.43 488.37 206.13 500.17 205.86 547.09 235.13 563.98 255.42 552.19"/><path class="cls-5" d="M255.58,459v-.35h0c-.23-7.81-15.25-14.11-33.74-14.11-18.64,0-33.74,6.4-33.74,14.3v49c2,6.87,16.31,12.63,33.74,12.63s31.77-5.76,33.74-12.63Z" transform="translate(-64.53 -7.23)"/><path class="cls-6" d="M159.35,302.61c-1.76,4.78-1.9,10-1.79,15.09a86.9,86.9,0,0,0,2.26,19.56c.81,3.19,1.9,6.36,2,9.65s-.91,6.86-3.57,8.81a3.51,3.51,0,0,1-2.06.79c-1.26,0-2.24-1-3-2a64.48,64.48,0,0,1-11-19.15c-.4-1.09-.71-2.46.11-3.28a4.11,4.11,0,0,1,2-.81,6.35,6.35,0,0,0-1.67-12.47,8,8,0,0,0-6.8,4.48,15.37,15.37,0,0,0-1.42,8.32c.49,7.53,10.12,20.09,11.7,23,2.74,5,11.79,11.65,16.58,6.49.69-.74,1-1.52,2-1.25,2.06.56,2.43,3.61,1.14,5.32a10.71,10.71,0,0,1-5.34,3.79,59.5,59.5,0,0,1-11.76,1.56,29.43,29.43,0,0,1-25.4-12c-1.38-1.91-2.55-4.3-1.85-6.55s4.2-3.4,5.44-1.4a6.83,6.83,0,0,0-9.48-9.51c-2.83,1.93-3.81,5.78-3.25,9.15s2.4,6.39,4.25,9.26c3.34,5.16,7.14,10.41,12.73,13a37.22,37.22,0,0,0,11.55,3.21A60.88,60.88,0,0,0,166,373.8c2.94-.88,5.77-2.18,8.81-2.63a1.88,1.88,0,0,1,1.15.08c1.3.68-.11,2.58-1.43,3.22-13.33,6.46-27.43,13.08-42.22,12.17-5.09-.32-10.74-2-13-6.57a24.09,24.09,0,0,0-1.88-4,5.08,5.08,0,0,0-9.14,2.91c-.07,2.38,1.51,4.49,3.26,6.11,7.51,7,18.65,8.42,28.86,7.59A82,82,0,0,0,176,381.18c1.52,1.39-.31,3.78-2,4.95-12.34,8.6-25.24,17.44-40.08,19.83-4.95.8-11.21.14-13.16-4.48-.61-1.46-.72-3.21-1.84-4.33-2-2-5.81-.19-6.42,2.56s1,5.53,3.12,7.43c3.95,3.61,9.49,5.15,14.84,5.07S141,410.57,146,408.64c35.08-13.55,61.11-46.09,71-82.38,1.86-6.82,3.19-14.08,1.36-20.9-2.68-10-12-17.29-22.14-19.39s-22.09-1.68-30,5C163.61,293.1,161.12,297.83,159.35,302.61Z" transform="translate(-64.53 -7.23)"/><path class="cls-7" d="M139.41,330.4a1.48,1.48,0,0,0,0,3A1.48,1.48,0,0,0,139.41,330.4Z" transform="translate(-64.53 -7.23)"/><path class="cls-7" d="M143.62,341.06a1.48,1.48,0,0,0,0,3A1.48,1.48,0,0,0,143.62,341.06Z" transform="translate(-64.53 -7.23)"/><path class="cls-7" d="M149.79,350a1.48,1.48,0,0,0,0,3A1.48,1.48,0,0,0,149.79,350Z" transform="translate(-64.53 -7.23)"/><path class="cls-7" d="M119.49,352a1.49,1.49,0,0,0,0,3A1.49,1.49,0,0,0,119.49,352Z" transform="translate(-64.53 -7.23)"/><path class="cls-7" d="M126,361.54a1.48,1.48,0,0,0,0,3A1.48,1.48,0,0,0,126,361.54Z" transform="translate(-64.53 -7.23)"/><path class="cls-7" d="M135.49,367.43a1.49,1.49,0,0,0,0,3A1.49,1.49,0,0,0,135.49,367.43Z" transform="translate(-64.53 -7.23)"/><path class="cls-7" d="M147.83,369.4a1.48,1.48,0,0,0,0,3A1.48,1.48,0,0,0,147.83,369.4Z" transform="translate(-64.53 -7.23)"/><path class="cls-7" d="M158.77,368.56a1.48,1.48,0,0,0,0,3A1.48,1.48,0,0,0,158.77,368.56Z" transform="translate(-64.53 -7.23)"/><path class="cls-7" d="M173.08,376.13a1.48,1.48,0,0,0,0,3A1.48,1.48,0,0,0,173.08,376.13Z" transform="translate(-64.53 -7.23)"/><path class="cls-7" d="M161.58,380.9a1.48,1.48,0,0,0,0,3A1.48,1.48,0,0,0,161.58,380.9Z" transform="translate(-64.53 -7.23)"/><path class="cls-7" d="M149.23,384.55a1.48,1.48,0,0,0,0,3A1.48,1.48,0,0,0,149.23,384.55Z" transform="translate(-64.53 -7.23)"/><path class="cls-7" d="M136.89,386.51a1.48,1.48,0,0,0,0,3A1.48,1.48,0,0,0,136.89,386.51Z" transform="translate(-64.53 -7.23)"/><path class="cls-7" d="M124.26,384.27a1.48,1.48,0,0,0,0,3A1.48,1.48,0,0,0,124.26,384.27Z" transform="translate(-64.53 -7.23)"/><path class="cls-7" d="M122.86,402.78a1.49,1.49,0,0,0,0,3A1.49,1.49,0,0,0,122.86,402.78Z" transform="translate(-64.53 -7.23)"/><path class="cls-7" d="M132.12,405a1.48,1.48,0,0,0,0,3A1.48,1.48,0,0,0,132.12,405Z" transform="translate(-64.53 -7.23)"/><path class="cls-7" d="M143.34,402.22a1.49,1.49,0,0,0,0,3A1.49,1.49,0,0,0,143.34,402.22Z" transform="translate(-64.53 -7.23)"/><path class="cls-7" d="M154.84,397.45a1.49,1.49,0,0,0,0,3A1.49,1.49,0,0,0,154.84,397.45Z" transform="translate(-64.53 -7.23)"/><path class="cls-7" d="M163.54,392.4a1.49,1.49,0,0,0,0,3A1.49,1.49,0,0,0,163.54,392.4Z" transform="translate(-64.53 -7.23)"/><path class="cls-7" d="M171.12,387.35a1.49,1.49,0,0,0,0,3A1.49,1.49,0,0,0,171.12,387.35Z" transform="translate(-64.53 -7.23)"/><path class="cls-8" d="M199.14,331.1a2.72,2.72,0,0,0-3.44-.57,2.56,2.56,0,0,0-1.12,2.14.64.64,0,0,0-.08.14,5,5,0,0,0,.25,4.88,1.5,1.5,0,0,0,2,.53C198.71,336.77,201.25,333.44,199.14,331.1Z" transform="translate(-64.53 -7.23)"/><path class="cls-8" d="M208.15,324a1.48,1.48,0,0,0,0,3A1.48,1.48,0,0,0,208.15,324Z" transform="translate(-64.53 -7.23)"/><path class="cls-8" d="M199.17,351.44a1.48,1.48,0,0,0,0,3A1.48,1.48,0,0,0,199.17,351.44Z" transform="translate(-64.53 -7.23)"/><path class="cls-8" d="M184.86,362.38a1.49,1.49,0,0,0,0,3A1.49,1.49,0,0,0,184.86,362.38Z" transform="translate(-64.53 -7.23)"/><path class="cls-9" d="M180.33,299.26a5.69,5.69,0,0,0-5.29-3.42,1.47,1.47,0,0,0-.78.24,2.29,2.29,0,0,0-.82.08,3.59,3.59,0,0,0-2.22,2.69,20,20,0,0,1-.48,3,4.62,4.62,0,0,0,3.06,4.78,5.51,5.51,0,0,0,6.53-7.37Z" transform="translate(-64.53 -7.23)"/><path class="cls-9" d="M207.47,301.08a3.69,3.69,0,0,0-5-.08,1.41,1.41,0,0,0-1.6,1c-.09.36-.19.74-.26,1.12a5.54,5.54,0,0,0-.73,2.22,4.39,4.39,0,0,0,3,4.68,4.51,4.51,0,0,0,5.17-1.68C209.39,306.34,209.25,302.82,207.47,301.08Z" transform="translate(-64.53 -7.23)"/><path class="cls-10" d="M176.73,298.42a1.48,1.48,0,0,0,0,3A1.48,1.48,0,0,0,176.73,298.42Z" transform="translate(-64.53 -7.23)"/><path class="cls-10" d="M205.91,302.07a1.48,1.48,0,0,0,0,3A1.48,1.48,0,0,0,205.91,302.07Z" transform="translate(-64.53 -7.23)"/><polygon class="cls-11" points="80.91 209.42 81.22 18.04 49.95 0 28.27 12.61 27.99 203.97 59.24 222.02 80.91 209.42"/><path class="cls-12" d="M286.24,678.19l160.43-92.62a14.33,14.33,0,0,0,0-24.82L286.24,468.13a53.61,53.61,0,0,0-53.62,0L72.2,560.75a14.33,14.33,0,0,0,0,24.82l160.42,92.62A53.61,53.61,0,0,0,286.24,678.19Z" transform="translate(-64.53 -7.23)"/><path class="cls-13" d="M286.24,650.73l160.43-92.62a14.33,14.33,0,0,0,0-24.82L286.24,440.67a53.61,53.61,0,0,0-53.62,0L72.2,533.29a14.33,14.33,0,0,0,0,24.82l160.42,92.62A53.61,53.61,0,0,0,286.24,650.73Z" transform="translate(-64.53 -7.23)"/><path class="cls-14" d="M286.24,623.27l160.43-92.62a14.33,14.33,0,0,0,0-24.82L286.24,413.21a53.61,53.61,0,0,0-53.62,0L72.2,505.83a14.33,14.33,0,0,0,0,24.82l160.42,92.62A53.61,53.61,0,0,0,286.24,623.27Z" transform="translate(-64.53 -7.23)"/><polygon class="cls-15" points="88.49 548.21 88.78 453 59.5 436.1 39.2 447.91 38.94 543.11 68.2 560.01 88.49 548.21"/><polygon class="cls-16" points="148.72 588.63 149.01 493.42 119.73 476.52 99.42 488.32 99.16 583.53 128.43 600.42 148.72 588.63"/><polygon class="cls-17" points="208.94 629.05 209.23 533.84 179.95 516.94 159.65 528.74 159.39 623.95 188.65 640.84 208.94 629.05"/><path class="cls-18" d="M126.51,172.14l33-19a3,3,0,0,0,0-5.1l-32.95-19a11,11,0,0,0-11,0L82.56,148a3,3,0,0,0,0,5.1l32.94,19A11,11,0,0,0,126.51,172.14Z" transform="translate(-64.53 -7.23)"/><line class="cls-19" x1="77.14" y1="156.16" x2="323.29" y2="298.28"/></g></g></g></svg>