<svg xmlns="http://www.w3.org/2000/svg" xmlns:xlink="http://www.w3.org/1999/xlink" viewBox="0 0 5244.91 375.78"><defs><style>.cls-1,.cls-3,.cls-4{fill:none;}.cls-2{clip-path:url(#clip-path);}.cls-3,.cls-4{stroke-miterlimit:10;}.cls-3{stroke:url(#未命名的渐变_53);}.cls-4{stroke:url(#未命名的渐变_53-2);}.cls-5{fill:url(#未命名的渐变_80);}.cls-6{fill:#3d928b;}.cls-7{fill:#5f5d70;}.cls-8{fill:#9da2b5;}.cls-9{fill:#7dadc3;}.cls-10{fill:#b8d5e0;}.cls-11{fill:#bfd5dd;}</style><clipPath id="clip-path" transform="translate(681.86)"><rect class="cls-1" y="88.68" width="1920" height="279.65"/></clipPath><linearGradient id="未命名的渐变_53" x1="1067.98" y1="297.66" x2="1067.98" y2="124.15" gradientUnits="userSpaceOnUse"><stop offset="0" stop-color="#b3b3b3" stop-opacity="0.5"/><stop offset="0.99" stop-color="#9cd6e8"/></linearGradient><linearGradient id="未命名的渐变_53-2" x1="1940.6" y1="375.78" x2="1940.6" y2="189.7" xlink:href="#未命名的渐变_53"/><linearGradient id="未命名的渐变_80" x1="1323.55" y1="99.92" x2="1355.52" y2="213.2" gradientUnits="userSpaceOnUse"><stop offset="0" stop-color="#b8d5e0"/><stop offset="1" stop-color="#7dadc3"/></linearGradient></defs><g id="图层_2" data-name="图层 2"><g id="图层_1-2" data-name="图层 1"><g class="cls-2"><path class="cls-3" d="M-203.47,297.51s-16.48-51.1,0-51.1c108.74,0,189.65-119.76,363.65-119.76,220.37,0,203.6,119.76,459.17,119.76,232,0,263.48-121.76,463.27-121.76,239.27,0,313.81,121.76,490.3,121.76,190.86,0,231.9-121.76,414.33-121.76,207,0,274,120,352.18,121.76,16.47.38,0,51.1,0,51.1" transform="translate(681.86)"/><path class="cls-4" d="M4555,320.56c-80.6-1.91-149.59-130.36-362.92-130.36-188,0-230.3,130.36-427,130.36-181.88,0-258.69-130.36-505.26-130.36-205.9,0-238.38,130.36-477.41,130.36-263.37,0-246.09-128.22-473.19-128.22-175.08,0-258.7,122.22-366.86,128-78.8-6.24-149.09-130.13-358.62-130.13-188,0-230.29,130.36-427,130.36-181.87,0-258.68-130.36-505.26-130.36-205.89,0-238.37,130.36-477.4,130.36C-89.24,320.56-72,192.34-299.06,192.34c-179.31,0-262.69,128.22-374.75,128.22-17,0,0,54.72,0,54.72H4555S4572,321,4555,320.56Z" transform="translate(681.86)"/></g><path class="cls-5" d="M1309.67,89.13c-3.11,12.4-1.07,25.46,1.36,38,1,4.92,2,10,1,14.91s-4.45,9.72-9.39,10.59c-4.33.76-8.63-1.6-11.92-4.51s-6-6.46-9.7-8.92c-6.55-4.42-15-4.67-22.87-4.77-1.83,0-3.89.05-5.12,1.39-2.06,2.25.06,6.09,2.89,7.2s6,.65,9,1.18c9.08,1.61,14.12,11.55,22.31,15.8s17.85,2.22,26.72.16c-2.79,3.77-2.78,7.49-3.56,12.11-.75,4.39-1.64,8.94-1.19,13.38,1.87,18.55,3.59,31.24,18,46.35,2-1.84,3.78-5.08,2.67-7.55s-3.07-4.44-4.69-6.61c-6.18-8.29-7.19-19.26-7.27-29.6,0-5.16.11-10.4,1.68-15.32s4.74-9.52,9.39-11.76a2.61,2.61,0,0,1,1.83-.33c.9.29,1.26,1.35,1.45,2.28,1.06,5.34.72,10.85,1.15,16.28A57.21,57.21,0,0,0,1383,231.65c2.38.31,5.8-.49,5.5-2.87-.18-1.53-1.87-2.3-3.31-2.84a65.83,65.83,0,0,1-42.12-69.07c5.37,30.9,32.08,56.88,63.11,61.4,3.5.5,8.32-.22,8.67-3.73A93.73,93.73,0,0,1,1353,162.73c.93-1.64,3.16.55,3.74,2.35a33.64,33.64,0,0,0,20.89,21.25c6.65,2.25,13.88,2.36,20.5,4.67,8.16,2.86,14.78,8.83,21.32,14.49,1.71,1.48,4,3,6,2.18s2.56-3.47,1.79-5.44-2.49-3.39-4.17-4.68a131.91,131.91,0,0,0-35.57-19.33c-5.38-1.92-11-3.53-15.82-6.54s-9-7.75-9.75-13.42a2.42,2.42,0,0,1,.21-1.6c.47-.71,1.46-.78,2.3-.87,8.12-.89,12.56-9.9,14.26-17.88s2.58-17,8.75-22.37c3.12-2.71,7.17-4.05,10.8-6s7.14-5.09,7.58-9.21l-13.44,6.21c-3.9,1.8-7.89,3.66-11,6.65-10.06,9.71-8.26,28.57-20.14,35.94-2.57-7.7,1.85-15.79,5.7-22.93q4.4-8.13,8-16.62c2.69-6.25,5.12-12.89,4.66-19.69-.67-9.85-7.58-18.57-16.29-23.22a48,48,0,0,0-28.81-4.83C1324.12,63.25,1312.78,76.73,1309.67,89.13Z" transform="translate(681.86)"/><path class="cls-6" d="M1285.26,156.31a3.62,3.62,0,1,0-3.62,3.62A3.68,3.68,0,0,0,1285.26,156.31Z" transform="translate(681.86)"/><path class="cls-6" d="M1303.53,161.8a3.62,3.62,0,1,0-3.62,3.61A3.68,3.68,0,0,0,1303.53,161.8Z" transform="translate(681.86)"/><path class="cls-6" d="M1322.71,171.84a3.62,3.62,0,1,0-3.61,3.62A3.67,3.67,0,0,0,1322.71,171.84Z" transform="translate(681.86)"/><path class="cls-6" d="M1320.89,190.11a3.62,3.62,0,1,0-3.62,3.62A3.68,3.68,0,0,0,1320.89,190.11Z" transform="translate(681.86)"/><path class="cls-6" d="M1338.24,176.41a3.62,3.62,0,1,0-3.61,3.62A3.67,3.67,0,0,0,1338.24,176.41Z" transform="translate(681.86)"/><path class="cls-6" d="M1344.64,197.42A3.62,3.62,0,1,0,1341,201,3.68,3.68,0,0,0,1344.64,197.42Z" transform="translate(681.86)"/><path class="cls-6" d="M1355.6,217.52a3.62,3.62,0,1,0-3.62,3.61A3.68,3.68,0,0,0,1355.6,217.52Z" transform="translate(681.86)"/><path class="cls-6" d="M1393.09,212.06a1.81,1.81,0,0,0,0,3.61A1.81,1.81,0,0,0,1393.09,212.06Z" transform="translate(681.86)"/><path class="cls-6" d="M1410.45,192a1.81,1.81,0,0,0,0,3.62A1.81,1.81,0,0,0,1410.45,192Z" transform="translate(681.86)"/><path class="cls-6" d="M1385.78,117.05a1.81,1.81,0,0,0,0,3.62A1.81,1.81,0,0,0,1385.78,117.05Z" transform="translate(681.86)"/><path class="cls-6" d="M1354.68,174.58a3.62,3.62,0,1,0-3.61,3.62A3.67,3.67,0,0,0,1354.68,174.58Z" transform="translate(681.86)"/><path class="cls-6" d="M1371.13,197.42a3.62,3.62,0,1,0-3.62,3.62A3.68,3.68,0,0,0,1371.13,197.42Z" transform="translate(681.86)"/><path class="cls-6" d="M1394.88,187.37a3.62,3.62,0,1,0-3.62,3.62A3.68,3.68,0,0,0,1394.88,187.37Z" transform="translate(681.86)"/><path class="cls-6" d="M1379.35,141.7a3.62,3.62,0,1,0-3.62,3.61A3.68,3.68,0,0,0,1379.35,141.7Z" transform="translate(681.86)"/><path class="cls-6" d="M1366.6,175.52a1.81,1.81,0,0,0,0,3.61A1.81,1.81,0,0,0,1366.6,175.52Z" transform="translate(681.86)"/><path class="cls-6" d="M1267.94,140.8a1.81,1.81,0,0,0,0,3.62A1.81,1.81,0,0,0,1267.94,140.8Z" transform="translate(681.86)"/><path class="cls-6" d="M1320.92,208.4a1.81,1.81,0,0,0,0,3.62A1.81,1.81,0,0,0,1320.92,208.4Z" transform="translate(681.86)"/><path class="cls-7" d="M1335.46,86.89a7.35,7.35,0,0,0-7.23-7.23,7.42,7.42,0,0,0-5.11,2.12,7.23,7.23,0,0,0,5.11,12.34,7.49,7.49,0,0,0,5.12-2.12A7.35,7.35,0,0,0,1335.46,86.89Z" transform="translate(681.86)"/><path class="cls-7" d="M1371.09,88.72a7.37,7.37,0,0,0-7.23-7.24,7.49,7.49,0,0,0-5.12,2.12A7.24,7.24,0,0,0,1363.86,96a7.47,7.47,0,0,0,5.11-2.12A7.31,7.31,0,0,0,1371.09,88.72Z" transform="translate(681.86)"/><path class="cls-8" d="M1329.29,82.06a1.81,1.81,0,0,0,0,3.62A1.81,1.81,0,0,0,1329.29,82.06Z" transform="translate(681.86)"/><path class="cls-8" d="M1363.32,83.43a1.81,1.81,0,0,0,0,3.62A1.81,1.81,0,0,0,1363.32,83.43Z" transform="translate(681.86)"/><path class="cls-8" d="M1320.84,107.41a1.81,1.81,0,0,0,0,3.62A1.81,1.81,0,0,0,1320.84,107.41Z" transform="translate(681.86)"/><path class="cls-8" d="M1315.82,116.78a1.81,1.81,0,0,0,0,3.61A1.81,1.81,0,0,0,1315.82,116.78Z" transform="translate(681.86)"/><path class="cls-8" d="M1325,117.46a1.81,1.81,0,0,0,0,3.62A1.81,1.81,0,0,0,1325,117.46Z" transform="translate(681.86)"/><path class="cls-8" d="M1322.44,127.28a1.81,1.81,0,0,0,0,3.62A1.81,1.81,0,0,0,1322.44,127.28Z" transform="translate(681.86)"/><path class="cls-8" d="M1315.82,124.53a.91.91,0,0,0,0,1.81A.91.91,0,0,0,1315.82,124.53Z" transform="translate(681.86)"/><path class="cls-8" d="M1321.76,114.48a.91.91,0,0,0,0,1.81A.91.91,0,0,0,1321.76,114.48Z" transform="translate(681.86)"/><path class="cls-8" d="M1313.54,104.43a.91.91,0,0,0,0,1.81A.91.91,0,0,0,1313.54,104.43Z" transform="translate(681.86)"/><path class="cls-8" d="M1325.64,125a.91.91,0,0,0,0,1.81A.91.91,0,0,0,1325.64,125Z" transform="translate(681.86)"/><path class="cls-8" d="M1316.28,137.09a.91.91,0,0,0,0,1.81A.91.91,0,0,0,1316.28,137.09Z" transform="translate(681.86)"/><path class="cls-9" d="M523.05,239.47a144.33,144.33,0,0,0,19.21-21.23,14,14,0,0,1-2.29-6.18c-.46-4,3-5.65,4.42-4.18s-.08,2.87-.7,4.57a20.77,20.77,0,0,0-.66,4.74c1.61-2.19,3.16-4.45,4.66-6.75l0-.27.11,0c1-1.59,2-3.21,3-4.84a15.22,15.22,0,0,1-5.89-4.8c-2.65-3.6-.21-7.07,1.94-6.42s1.49,2.78,1.83,4.75a27.64,27.64,0,0,0,2.48,5.87c2.4-4.08,4.6-8.29,6.58-12.58a22.19,22.19,0,0,1-7.82-6.62c-3.86-5.23-.31-10.26,2.8-9.33s2.17,4.05,2.67,6.91c.35,2,2.08,5.58,3.06,7.49A125.27,125.27,0,0,0,564,176a55.52,55.52,0,0,1-3.81-9.2c-.82-3.45-7.64-9.13-8.46-12.59s-2-8.63,3.54-8.13,5.1,6.09,5.42,15.13a21.32,21.32,0,0,0,4,12.29,90.3,90.3,0,0,0,3.18-32.46,64,64,0,0,1-16.28-7.39c-9.58-5.85-11.84-11.84-7.58-14.5s7.68.44,8.65,2c2.66,4.26,1.86,7.72,6.25,12.38a21.75,21.75,0,0,0,8.75,5.6,70,70,0,0,0-4.08-16.59c-1-2.61-2.12-5.18-3.29-7.73a27.84,27.84,0,0,1-14.86-2.43c-8.36-3.94-7.32-12.64-2.79-13.57s5.45,3.59,8,6.84c1.77,2.25,6.17,5.44,8.72,7.19-3.16-6.71-6.58-13.3-9.36-20.17a25,25,0,0,1-12.25-1.17C530.84,89,531,82.07,534.5,81s4.59,2.42,6.86,4.8c1.71,1.79,6,4.23,8,5.32Q548,87.6,546.86,84h0c-.6-1.88-1.15-3.77-1.68-5.67A27.63,27.63,0,0,1,529.49,76c-8.35-3.93-7.32-12.64-2.79-13.57s5.46,3.59,8,6.84c2.23,2.83,8.61,7.14,10.23,8.21q-1.11-4.1-2.06-8.24l-.21-.34.11-.07c-.37-1.65-.73-3.31-1.08-5a66.72,66.72,0,0,1-14.54-9.09c-8.77-7-9.55-14.7-5-16.81s7.74.74,9.39,4.34c4.67,10.21.45,13.26,5.43,17.27,2,1.62,3.38,2.09,4.26,2.16a1.42,1.42,0,0,1,0-.2,227,227,0,0,1-4-24.9c-2-.84-6.43-2.9-9.3-5.87-3.82-4-1.4-8.61,1.33-8.17s2.28,3.16,3,5.52c.49,1.56,3.09,4.7,4.78,6.64A97.69,97.69,0,0,1,537,19a14.1,14.1,0,0,1-4.9-3.26c-2.82-2.92-1-6.33,1-6s1.68,2.32,2.23,4.05a17.07,17.07,0,0,0,1.9,3.46A73.23,73.23,0,0,1,541,.44c.29-.8,1.56-.42,1.27.39A74,74,0,0,0,538.7,15.4a10.63,10.63,0,0,0,3.58-5.94c.47-3.24.63-6.52,3.9-6.21s1.25,5.59-2.33,8.54c-.87.71-4,3.51-5.27,4.63-.1.82-.21,1.65-.29,2.47l0,0,0,.12a99.5,99.5,0,0,0-.09,17.09l.28.31-.21.64c.38,4.67,1,9.35,1.85,14,.59-1.09,4.08-7.95,2.38-14.62C540.83,30,538.55,23.65,545,21.68s6.76,9.56,2.32,17.93c-1.19,2.26-5.63,11.7-6.75,13.81.53,2.75,1.12,5.5,1.75,8.23a.76.76,0,0,0,.18-.1l0,1.14q.63,2.7,1.31,5.37a15.87,15.87,0,0,0,4.06-5.4c1.93-4.23.57-6.42,1.4-10a4.5,4.5,0,0,1,5.48-3.4c3.55.84,3.4,5.48-1.81,11.75a50,50,0,0,1-8.77,8.43c.64,2.5,1.29,5,2,7.46.47,1.74,1,3.46,1.61,5.17C549,81,551.53,78.26,552,74.78c.6-4.12.81-8.29,5-7.88s1.59,7.09-3,10.83c-1,.78-4.1,3.61-6,5.26,3.16,9,7.62,17.64,11.68,26.4a13.52,13.52,0,0,0,3.37-4.89c2.65-5.83-2.49-6.65-2.91-17.87-.15-4,1.42-7.94,6.44-8.1s7.78,7.06,3.09,17.26a64.92,64.92,0,0,1-9.29,15.12c3.56,7.83,6.7,15.77,8.17,24.13a21.16,21.16,0,0,0,4.16-12.58c.26-9-.27-14.64,5.32-15.17s4.39,4.65,3.59,8.11-7.58,9.18-8.38,12.64-4.12,10-4.12,10l-.19-.3c.09.65.2,1.29.26,1.94a88.16,88.16,0,0,1-.07,16.88c1.16-1.54,5.77-7.75,6.94-11.16,1.33-3.91.71-8.48,5.28-9.11s8.45,7.25,1.87,13.74a27.64,27.64,0,0,1-14.17,7.41,108.75,108.75,0,0,1-5.85,25,21.66,21.66,0,0,0,8.4-5.55c4.36-4.68,3.54-8.14,6.17-12.41,1-1.56,4.36-4.68,8.64-2s2,8.64-7.5,14.55-16.45,7.55-16.45,7.55v0a136.4,136.4,0,0,1-9.27,19.6c2.26-1,7.92-3.84,10.6-9.12,3-6,5.46-12.24,11.58-9.51s-1.2,11.64-10,15c-2.15.83-10.16,4.33-13.32,5.62-.84,1.41-1.69,2.81-2.58,4.18a15.67,15.67,0,0,0,6.33-1.38c4.23-1.92,4.65-4.46,7.61-6.59a4.5,4.5,0,0,1,6.37,1c2.13,3-1,6.36-9.1,7.66a49.76,49.76,0,0,1-12,.58c-2.5,3.82-5.16,7.51-8,11,1,0,5.56,0,8.71-2.69s6.06-5.7,8.91-2.68-3.47,6.39-9.35,6.22c-1.44,0-6.87.05-9,0a145.43,145.43,0,0,1-16,17C523.33,241,522.41,240.05,523.05,239.47Z" transform="translate(681.86)"/><path class="cls-10" d="M521.93,238.33c3.11-8.2,6.13-16.59,8.58-25.07a11.69,11.69,0,0,1-3.83-3.37c-2-2.78-.15-5.45,1.5-4.94s1.15,2.15,1.41,3.67a15.56,15.56,0,0,0,1.29,3.34c.55-2,1.08-4,1.56-6l-.08-.59.23,0c.52-2.15,1-4.31,1.41-6.46a15.76,15.76,0,0,1-6.56-2.79c-3.71-2.71-2.38-6.85-.08-6.88s2.32,2.27,3.26,4.09a24.23,24.23,0,0,0,3.61,4.37,113.79,113.79,0,0,0,1.64-12.92,19,19,0,0,1-7.5-3.28c-4.46-3.26-2.86-8.25-.1-8.28s2.79,2.73,3.92,4.92a26.39,26.39,0,0,0,3.8,4.7,87.41,87.41,0,0,0-.4-13.73,25.82,25.82,0,0,1-5.64-2.89c-1.61-1.36-7.76-.64-9.37-2s-4-3.42-.3-6.19,5.18.44,8.23,5a9.13,9.13,0,0,0,6.85,4.3,73.42,73.42,0,0,0-3.7-15.22A56.53,56.53,0,0,1,517,150.23c-9.26-2.31-12.62-6.59-9.85-9.83a5.25,5.25,0,0,1,7.52-.58c3.25,2.77,3.48,5.78,8.23,8.44a18.5,18.5,0,0,0,8.2,2.31q-1-2.52-2.16-5l-.17-.15.05-.11a2.55,2.55,0,0,1-.13-.29,109.18,109.18,0,0,0-5.52-10,23.82,23.82,0,0,1-12,1.52c-7.79-1.07-9.16-8.39-5.73-10.3s5.34,1.52,8.24,3.51c1.86,1.27,5.76,2.62,8.32,3.42a177.32,177.32,0,0,0-10.55-14.4,21.26,21.26,0,0,1-10.17,2.14c-6.23-.25-7.88-5.93-5.31-7.7s4.34.79,6.78,2.14c1.83,1,5.86,1.89,7.78,2.27-2.4-3-4.86-5.92-7.35-8.91a23.65,23.65,0,0,1-12.53,1.75c-7.78-1.07-9.16-8.39-5.73-10.3s5.34,1.53,8.24,3.51c2,1.36,6.29,2.81,8.82,3.59-1.63-2-3.26-4-4.89-6-.86-1.07-1.67-2.17-2.46-3.28a59.42,59.42,0,0,1-12.94-3.53c-8.9-3.45-11.48-9.49-8.32-12.36s6.46-1.37,8.72,1.13c6.39,7.1,3.74,10.64,8.8,12.63a9.59,9.59,0,0,0,2.74.7,97.61,97.61,0,0,1-9.95-19.53,23.11,23.11,0,0,1-7.52-2.22c-4.12-2.25-3.33-6.63-1-7s2.66,2,3.85,3.7a16.83,16.83,0,0,0,3.74,3c-1.13-3.08-2.18-6.2-3.18-9.34a11.91,11.91,0,0,1-4.83-1.4c-3-1.64-2.46-4.86-.75-5.11s2,1.45,2.84,2.72a14.05,14.05,0,0,0,2.23,2.17c-.9-2.88-1.76-5.78-2.61-8.66-.24-.81,1-1.3,1.24-.48.77,2.6,1.55,5.16,2.36,7.69a6,6,0,0,0,.89-3.78c-.3-1.87-.78-3.7,1.07-4.09s1.65,2.86.19,5.09c-.33.51-1.42,2.36-2,3.28,1.46,4.54,3,9,4.77,13.31l1.21.72v.58l-.68,0q2,4.81,4.37,9.43c.2-2.56.11-6.81-2.07-10.34-3-4.84-6.45-9.38-1.76-12.61s7.92,6,6.45,13.95c-.31,1.69-1.13,7.53-1.63,10.89q2.13,3.95,4.66,7.73a1.66,1.66,0,0,0,.3-.24l.55,1.5c.75,1.08,1.52,2.15,2.33,3.22a13.54,13.54,0,0,0,1.8-5.21c.49-3.92-1.17-5.35-1.4-8.44A3.82,3.82,0,0,1,502.68,83c3.1-.23,4.16,3.58,1.52,10a42.56,42.56,0,0,1-4.75,8.77c1.41,1.81,2.9,3.59,4.5,5.34q1.59,1.73,3.13,3.5a11.12,11.12,0,0,0,1.54-6.88c-.56-3.49-1.45-6.92,2-7.65s3.09,5.35.36,9.54c-.56.85-2.28,3.76-3.39,5.59A169.51,169.51,0,0,1,520.5,128a12.57,12.57,0,0,0,1-3.84c.6-5.26-3.75-4.68-7-13.49-1.16-3.12-1-6.65,3-8s8.11,3.74,7,13a54.37,54.37,0,0,1-3.21,13.54c1,1.55,2,3.13,3,4.72l.2.06.32.36-.2.1c1.75,3,3.4,6,4.91,9.08a17.48,17.48,0,0,0-.19-9.55c-2-7-3.72-11.14.43-12.9s4.48,2.51,4.7,5.36-3.6,8.85-3.38,11.69a42.29,42.29,0,0,1-.57,7.49c1.13,2.43,2.19,4.89,3.15,7.41.7,1.83,1.3,3.68,1.82,5.54.78-2.27,2.43-7.33,2.5-10,.08-3.51-1.59-7.07,2-8.74s8.69,3.73,5,10.66a23.67,23.67,0,0,1-9.14,9.38A72.08,72.08,0,0,1,538,177.36a18.55,18.55,0,0,0,4.75-6.13c2.34-4.9.8-7.5,1.85-11.63a5.25,5.25,0,0,1,6.48-3.86c4.14,1,3.86,6.48-2.37,13.7a56.33,56.33,0,0,1-10.73,9.86,101.09,101.09,0,0,1-1.28,14.14c1.55-1.32,5.5-5.12,6.34-10.15.92-5.62,1.31-11.32,7-10.66s2,9.75-4.32,14.75c-1.52,1.2-7,6-9.3,7.89q-.84,4.78-2,9.56a11.73,11.73,0,0,0,3.4-2.1c2.56-2.29,2.29-4.18,3.91-6.33a3.31,3.31,0,0,1,4.71-.67c2.16,1.61.67,4.71-4.71,7.4A38.33,38.33,0,0,1,534,206c-1,4-2.15,7.92-3.4,11.81a7.06,7.06,0,0,0,3.24-2.57c1.26-2,2.32-4.13,4.38-3s-.79,4.06-4,5c-.6.17-2.45.78-3.81,1.22-2.26,7-4.8,13.86-7.28,20.39C522.84,239.67,521.63,239.13,521.93,238.33Z" transform="translate(681.86)"/><path class="cls-11" d="M572.63,228A4.18,4.18,0,0,0,567.5,227a2.84,2.84,0,0,0-.88,4.3,4.16,4.16,0,0,0,5.12,1.06A2.84,2.84,0,0,0,572.63,228Z" transform="translate(681.86)"/><path class="cls-11" d="M592.25,216.6a3.53,3.53,0,0,0,.81-4.6,5.24,5.24,0,0,0-5.69-2.2,8.64,8.64,0,0,0-3.44,1.61c-.17.14-.19.18-.07.12s.1,0-.32.2-.89.72-1.34,1.1a2.7,2.7,0,0,0-.4,3.39,4.06,4.06,0,0,0,3.53,1.84,11.8,11.8,0,0,0,1.95-.1l.14,0C588.94,219.83,592.31,218.73,592.25,216.6Z" transform="translate(681.86)"/><path class="cls-11" d="M592.12,242.93a4,4,0,0,0-1.28-1.21c0-1.39-1.56-2.5-2.94-2.46a2.2,2.2,0,0,0-1.55.42,2.17,2.17,0,0,0-.69,2.43,3.21,3.21,0,0,0-.65,4.67C587.63,250.76,595.17,247.56,592.12,242.93Z" transform="translate(681.86)"/><path class="cls-11" d="M562,257.68c.34-1.64-1.34-3-2.91-3-2.23-1.81-6.57.37-4.56,3.43a3.09,3.09,0,0,0,3.41,1.19C559.37,260,561.61,259.39,562,257.68Z" transform="translate(681.86)"/><path class="cls-11" d="M540.09,227.41a5.13,5.13,0,0,0,0-2.07c.09-.37.19-.74.28-1.12.26-1.05-1.4-1.6-2.05-.93-.28.29-.56.58-.85.86a6.33,6.33,0,0,0-1.88,1.21c-1.35,1-.3,2.9.88,3.44S540,229.06,540.09,227.41Z" transform="translate(681.86)"/><path class="cls-11" d="M561.49,202.5a3.07,3.07,0,0,0,.66-.59,2.51,2.51,0,0,0,.53-1.49,2.72,2.72,0,0,0,.33-.48c.24-.47-.15-.79-.57-.87a3.48,3.48,0,0,0-.68-1,4.32,4.32,0,0,0-4-1.08,3,3,0,0,0-2.23,2.08h0a2.31,2.31,0,0,0,.1,3.36,3.3,3.3,0,0,0,1.21.71,2.37,2.37,0,0,0,3.15.66A6.11,6.11,0,0,0,561.49,202.5Z" transform="translate(681.86)"/><path class="cls-11" d="M589.69,187.49c.41-.57.76-1.15,1.13-1.74,1.06-1.67-.66-3.47-2.24-3.79s-3.86.65-3.55,2.6c.11.69.21,1.36.35,2A2.44,2.44,0,0,0,589.69,187.49Z" transform="translate(681.86)"/><path class="cls-11" d="M612.15,204.64c-2-3-7.72-.6-5.41,2.92C608.74,210.59,614.47,208.16,612.15,204.64Z" transform="translate(681.86)"/><path class="cls-11" d="M611.71,229.84c-1.47-2.22-5.66-.43-4,2.14C609.21,234.2,613.4,232.42,611.71,229.84Z" transform="translate(681.86)"/><path class="cls-11" d="M619.72,181.61c-.77-1.17-3-.23-2.09,1.12C618.4,183.9,620.61,183,619.72,181.61Z" transform="translate(681.86)"/></g></g></svg>