<svg xmlns="http://www.w3.org/2000/svg" xmlns:xlink="http://www.w3.org/1999/xlink" viewBox="0 0 134.55 37.95"><defs><style>.cls-1{fill:url(#未命名的渐变_103);}.cls-2{fill:#fff;}.cls-3{fill:url(#未命名的渐变_95);}.cls-4{fill:url(#未命名的渐变_95-2);}.cls-5{fill:url(#未命名的渐变_95-3);}.cls-6{fill:url(#未命名的渐变_95-4);}.cls-7{fill:url(#未命名的渐变_95-5);}.cls-8{fill:url(#未命名的渐变_95-6);}.cls-9{fill:url(#未命名的渐变_95-7);}.cls-10{fill:url(#未命名的渐变_95-8);}.cls-11{fill:url(#未命名的渐变_95-9);}.cls-12{fill:url(#未命名的渐变_95-10);}.cls-13{fill:url(#未命名的渐变_95-11);}.cls-14{fill:url(#未命名的渐变_109);}.cls-15{fill:url(#未命名的渐变_95-12);}.cls-16{fill:url(#未命名的渐变_95-13);}.cls-17{fill:url(#未命名的渐变_110);}.cls-18{fill:url(#未命名的渐变_95-14);}.cls-19{fill:url(#未命名的渐变_109-2);}</style><radialGradient id="未命名的渐变_103" cx="19.45" cy="4.69" r="29.38" gradientUnits="userSpaceOnUse"><stop offset="0" stop-color="#fff"/><stop offset="0.24" stop-color="#f6fdff"/><stop offset="0.63" stop-color="#dcf8ff"/><stop offset="0.99" stop-color="#bff3ff"/></radialGradient><radialGradient id="未命名的渐变_95" cx="29.13" cy="20.69" r="0.42" gradientUnits="userSpaceOnUse"><stop offset="0" stop-color="#ae00bf"/><stop offset="0.19" stop-color="#a503b8"/><stop offset="0.49" stop-color="#8b0da5"/><stop offset="0.88" stop-color="#621b86"/><stop offset="0.99" stop-color="#55207c"/></radialGradient><radialGradient id="未命名的渐变_95-2" cx="24.7" cy="27.24" r="0.42" xlink:href="#未命名的渐变_95"/><radialGradient id="未命名的渐变_95-3" cx="29.13" cy="23.96" r="0.42" xlink:href="#未命名的渐变_95"/><radialGradient id="未命名的渐变_95-4" cx="28.07" cy="27.24" r="0.42" xlink:href="#未命名的渐变_95"/><radialGradient id="未命名的渐变_95-5" cx="13.3" cy="27.24" r="0.42" xlink:href="#未命名的渐变_95"/><radialGradient id="未命名的渐变_95-6" cx="14.36" cy="20.69" r="0.42" xlink:href="#未命名的渐变_95"/><radialGradient id="未命名的渐变_95-7" cx="14.36" cy="23.96" r="0.42" xlink:href="#未命名的渐变_95"/><radialGradient id="未命名的渐变_95-8" cx="23.64" cy="23.96" r="0.42" xlink:href="#未命名的渐变_95"/><radialGradient id="未命名的渐变_95-9" cx="23.64" cy="20.69" r="0.42" xlink:href="#未命名的渐变_95"/><radialGradient id="未命名的渐变_95-10" cx="9.92" cy="27.24" r="0.42" xlink:href="#未命名的渐变_95"/><radialGradient id="未命名的渐变_95-11" cx="8.86" cy="20.69" r="0.42" xlink:href="#未命名的渐变_95"/><radialGradient id="未命名的渐变_109" cx="16.4" cy="9.87" r="1.15" gradientUnits="userSpaceOnUse"><stop offset="0" stop-color="#69198b"/><stop offset="0.56" stop-color="#601c84"/><stop offset="0.99" stop-color="#55207c"/></radialGradient><radialGradient id="未命名的渐变_95-12" cx="19.26" cy="15.76" r="3.59" xlink:href="#未命名的渐变_95"/><radialGradient id="未命名的渐变_95-13" cx="8.86" cy="23.96" r="0.42" xlink:href="#未命名的渐变_95"/><radialGradient id="未命名的渐变_110" cx="24.26" cy="9.11" fx="11.058577204424878" r="21.69" gradientUnits="userSpaceOnUse"><stop offset="0.23" stop-color="#ae00bf"/><stop offset="0.35" stop-color="#a503b8"/><stop offset="0.57" stop-color="#8b0da5"/><stop offset="0.83" stop-color="#621b86"/><stop offset="0.91" stop-color="#55207c"/></radialGradient><radialGradient id="未命名的渐变_95-14" cx="28.64" cy="7.71" r="13.17" xlink:href="#未命名的渐变_95"/><radialGradient id="未命名的渐变_109-2" cx="22.13" cy="9.87" r="1.15" xlink:href="#未命名的渐变_109"/></defs><g id="图层_2" data-name="图层 2"><g id="图层_1-2" data-name="图层 1"><path class="cls-1" d="M37,7.3v.25A7.43,7.43,0,0,0,29.63,1h.79A63.59,63.59,0,0,0,19,0,62.64,62.64,0,0,0,7.27,1h.3A7.42,7.42,0,0,0,1,7.59v0A62.64,62.64,0,0,0,0,19.25,63.67,63.67,0,0,0,1,30.71V29.6A7.42,7.42,0,0,0,7.56,37h0a62.64,62.64,0,0,0,11.69,1,63.59,63.59,0,0,0,11.46-1h-1A7.41,7.41,0,0,0,37,29.68v.77A63.67,63.67,0,0,0,38,19,62.64,62.64,0,0,0,37,7.3Z"/><path class="cls-2" d="M47.67,18.18c0-5.36,2.95-8.61,7.14-8.61S62,12.83,62,18.18s-3,8.72-7.15,8.72S47.67,23.53,47.67,18.18Zm12.09,0c0-4.17-2-6.74-4.95-6.74S49.87,14,49.87,18.18s2,6.85,4.94,6.85S59.76,22.34,59.76,18.18Z"/><path class="cls-2" d="M64.45,20.42c0-4.13,2.79-6.51,6-6.51A5.24,5.24,0,0,1,74,15.36L73,16.75a3.59,3.59,0,0,0-2.45-1.1c-2.24,0-3.89,1.93-3.89,4.77s1.55,4.74,3.83,4.74a4.44,4.44,0,0,0,2.91-1.24l.91,1.41a6,6,0,0,1-4,1.57C67,26.9,64.45,24.52,64.45,20.42Z"/><path class="cls-2" d="M77.09,22.77V15.92H75.24V14.34l1.94-.12.25-3.48h1.75v3.48h3.36v1.7H79.18v6.89c0,1.51.49,2.39,1.92,2.39a4.1,4.1,0,0,0,1.41-.34l.4,1.58a7.29,7.29,0,0,1-2.3.46C78,26.9,77.09,25.23,77.09,22.77Z"/><path class="cls-2" d="M84.06,20.42c0-4.13,2.7-6.51,5.73-6.51s5.74,2.38,5.74,6.51-2.7,6.48-5.74,6.48S84.06,24.52,84.06,20.42Zm9.31,0c0-2.84-1.45-4.77-3.58-4.77s-3.57,1.93-3.57,4.77,1.44,4.74,3.57,4.74S93.37,23.26,93.37,20.42Z"/><path class="cls-2" d="M98.79,14.22h1.73l.18,1.42h.07a6.51,6.51,0,0,1,4-1.73c3.2,0,4.91,2.48,4.91,6.31,0,4.22-2.54,6.68-5.37,6.68a5.64,5.64,0,0,1-3.43-1.43l.06,2.16v4.19h-2.1Zm8.67,6c0-2.74-.93-4.57-3.26-4.57a5.1,5.1,0,0,0-3.31,1.69v6.49a4.83,4.83,0,0,0,3,1.29C106,25.14,107.46,23.29,107.46,20.24Z"/><path class="cls-2" d="M112.76,22.06V14.22h2.09v7.57c0,2.31.7,3.29,2.34,3.29,1.27,0,2.14-.62,3.31-2.08V14.22h2.1V26.6h-1.73l-.18-1.94h-.07a5.26,5.26,0,0,1-4.08,2.24C113.93,26.9,112.76,25.22,112.76,22.06Z"/><path class="cls-2" d="M125.41,25.18l1-1.38a5.58,5.58,0,0,0,3.66,1.47c1.62,0,2.43-.87,2.43-1.92,0-1.28-1.46-1.84-2.83-2.35C128,20.37,126,19.51,126,17.42s1.58-3.51,4.27-3.51a6.28,6.28,0,0,1,3.85,1.39l-1,1.34a4.63,4.63,0,0,0-2.82-1.1c-1.56,0-2.28.83-2.28,1.78,0,1.17,1.35,1.62,2.75,2.15,1.79.67,3.78,1.39,3.78,3.75,0,2-1.6,3.68-4.52,3.68A7.39,7.39,0,0,1,125.41,25.18Z"/><path class="cls-3" d="M29.13,21.11a.42.42,0,0,0,0-.84.42.42,0,0,0,0,.84Z"/><path class="cls-4" d="M24.7,26.82a.42.42,0,1,0,0,.84.42.42,0,1,0,0-.84Z"/><path class="cls-5" d="M29.13,24.38a.42.42,0,0,0,0-.84.42.42,0,0,0,0,.84Z"/><path class="cls-6" d="M28.07,27.66a.42.42,0,1,0-.41-.42A.42.42,0,0,0,28.07,27.66Z"/><path class="cls-7" d="M13.3,27.66a.42.42,0,1,0-.42-.42A.42.42,0,0,0,13.3,27.66Z"/><path class="cls-8" d="M14.36,21.11a.42.42,0,1,0-.42-.42A.42.42,0,0,0,14.36,21.11Z"/><path class="cls-9" d="M14.36,24.38a.42.42,0,1,0-.42-.42A.42.42,0,0,0,14.36,24.38Z"/><path class="cls-10" d="M24.06,24a.42.42,0,1,0-.42.42A.42.42,0,0,0,24.06,24Z"/><path class="cls-11" d="M23.64,21.11a.42.42,0,1,0-.42-.42A.42.42,0,0,0,23.64,21.11Z"/><path class="cls-12" d="M9.5,27.24a.42.42,0,1,0,.42-.42A.42.42,0,0,0,9.5,27.24Z"/><path class="cls-13" d="M8.86,21.11a.42.42,0,1,0-.42-.42A.42.42,0,0,0,8.86,21.11Z"/><path class="cls-14" d="M17.55,9.87A1.15,1.15,0,1,0,16.4,11,1.15,1.15,0,0,0,17.55,9.87Z"/><path class="cls-15" d="M19.26,17.64A4.85,4.85,0,0,0,24,13.88H14.54A4.86,4.86,0,0,0,19.26,17.64Z"/><path class="cls-16" d="M8.86,24.38A.42.42,0,1,0,8.44,24,.42.42,0,0,0,8.86,24.38Z"/><path class="cls-17" d="M6.85,20.13V25s0,0,0,.05,0,0,0,0a4.79,4.79,0,1,0,9.58,0V20.13a2.08,2.08,0,1,0-4.15,0V24A.64.64,0,0,1,11,24V12.37a8,8,0,0,1,15.94,0V24a.64.64,0,0,1-1.28,0V20.13a2.08,2.08,0,0,0-4.16,0v4.95a4.8,4.8,0,0,0,9.59,0s0,0,0,0,0,0,0-.05V20.13a3.37,3.37,0,0,1,3.36-3.36,3.33,3.33,0,0,1,2.07.74,55.13,55.13,0,0,0-.91-9.36v.23a6.86,6.86,0,0,0-6.78-6.1h.74A58.59,58.59,0,0,0,19,1.4a57.45,57.45,0,0,0-10.82.92h.27a6.86,6.86,0,0,0-6.08,6.1v0a55.29,55.29,0,0,0-.91,9.11,3.31,3.31,0,0,1,2.07-.74A3.37,3.37,0,0,1,6.85,20.13Zm7.51-.5a1.06,1.06,0,1,1-1.06,1.06A1.06,1.06,0,0,1,14.36,19.63Zm0,3.27a1.06,1.06,0,0,1,0,2.12,1.06,1.06,0,0,1,0-2.12ZM13.3,26.18a1.06,1.06,0,1,1-1.06,1.06A1.06,1.06,0,0,1,13.3,26.18Zm10.34-6.55a1.06,1.06,0,1,1-1.06,1.06A1.06,1.06,0,0,1,23.64,19.63ZM22.58,24A1.06,1.06,0,1,1,23.64,25,1.06,1.06,0,0,1,22.58,24ZM24.7,28.3a1.06,1.06,0,1,1,1.06-1.06A1.06,1.06,0,0,1,24.7,28.3Zm4.43-8.67a1.06,1.06,0,0,1,0,2.12,1.06,1.06,0,0,1,0-2.12Zm0,3.27A1.06,1.06,0,1,1,28.07,24,1.06,1.06,0,0,1,29.13,22.9Zm-1.06,3.28A1.06,1.06,0,1,1,27,27.24,1.05,1.05,0,0,1,28.07,26.18ZM11,27.24a1.06,1.06,0,1,1-2.12,0,1.06,1.06,0,0,1,2.12,0ZM8.86,19.63a1.06,1.06,0,0,1,0,2.12,1.06,1.06,0,0,1,0-2.12Zm0,3.27A1.06,1.06,0,1,1,7.8,24,1.06,1.06,0,0,1,8.86,22.9Z"/><path class="cls-18" d="M34.45,18.05a2.08,2.08,0,0,0-2.08,2.08V25s0,0,0,.05,0,0,0,0a6.07,6.07,0,0,1-12.14,0V23.19a1.87,1.87,0,0,1-1.25.48,1.91,1.91,0,0,1-1.27-.49v1.9a6.07,6.07,0,0,1-12.14,0s0,0,0,0,0,0,0-.05V20.13a2.08,2.08,0,0,0-4.16,0v.05a58,58,0,0,0,.87,9.65v-1a6.87,6.87,0,0,0,6.12,6.81h0a58.3,58.3,0,0,0,10.82.92,58.59,58.59,0,0,0,10.61-.88h-1a6.87,6.87,0,0,0,6.81-6.78v.71a56.81,56.81,0,0,0,.88-9.47A2.08,2.08,0,0,0,34.45,18.05Z"/><path class="cls-19" d="M23.28,9.87A1.15,1.15,0,1,0,22.13,11,1.14,1.14,0,0,0,23.28,9.87Z"/></g></g></svg>