<svg xmlns="http://www.w3.org/2000/svg" viewBox="0 0 169 47.23"><defs><style>.cls-1{fill:#55207c;}.cls-2{fill:#fff;}.cls-3{fill:#150035;}</style></defs><g id="图层_2" data-name="图层 2"><g id="图层_1-2" data-name="图层 1"><path class="cls-1" d="M47.69,9.09v.3a9.23,9.23,0,0,0-9.11-8.2h1A78.47,78.47,0,0,0,25.3,0,78,78,0,0,0,10.76,1.24h.36A9.24,9.24,0,0,0,3,9.45v0A77.23,77.23,0,0,0,1.7,24,78.64,78.64,0,0,0,2.89,38.22V36.84A9.24,9.24,0,0,0,11.12,46h0a78.16,78.16,0,0,0,14.55,1.24A77.67,77.67,0,0,0,39.89,46h-1.3a9.23,9.23,0,0,0,9.16-9.11v1a78.47,78.47,0,0,0,1.19-14.26A77,77,0,0,0,47.69,9.09Z"/><path class="cls-2" d="M.86,27.6A.86.86,0,0,1,0,26.74V25.18a4.51,4.51,0,0,1,9,0,.86.86,0,1,1-1.72,0,2.79,2.79,0,0,0-5.58,0v1.56A.87.87,0,0,1,.86,27.6Z"/><path class="cls-2" d="M15.47,40A8.18,8.18,0,0,1,7.3,31.84a.86.86,0,1,1,1.72,0,6.45,6.45,0,0,0,12.89,0V25.18a.86.86,0,0,1,1.72,0v6.66A8.17,8.17,0,0,1,15.47,40Z"/><path class="cls-2" d="M8.16,32.58a.86.86,0,0,1-.86-.86V25.18a.86.86,0,1,1,1.72,0v6.54A.85.85,0,0,1,8.16,32.58Z"/><path class="cls-2" d="M15.47,31.2a.86.86,0,0,1-.86-.86V25.18a4.51,4.51,0,0,1,9,0,.86.86,0,0,1-1.72,0,2.79,2.79,0,0,0-5.58,0v5.16A.87.87,0,0,1,15.47,31.2Z"/><path class="cls-2" d="M49.78,27.6a.87.87,0,0,1-.86-.86V25.18a2.79,2.79,0,0,0-5.58,0,.86.86,0,0,1-1.72,0,4.51,4.51,0,1,1,9,0v1.56A.86.86,0,0,1,49.78,27.6Z"/><path class="cls-2" d="M35.17,40A8.17,8.17,0,0,1,27,31.84V25.18a.86.86,0,0,1,1.72,0v6.66a6.45,6.45,0,0,0,12.89,0,.86.86,0,1,1,1.72,0A8.18,8.18,0,0,1,35.17,40Z"/><path class="cls-2" d="M42.48,32.58a.85.85,0,0,1-.86-.86V25.18a.86.86,0,1,1,1.72,0v6.54A.86.86,0,0,1,42.48,32.58Z"/><path class="cls-2" d="M35.17,31.2a.87.87,0,0,1-.86-.86V25.18a2.79,2.79,0,0,0-5.58,0,.86.86,0,0,1-1.72,0,4.51,4.51,0,0,1,9,0v5.16A.86.86,0,0,1,35.17,31.2Z"/><circle class="cls-2" cx="25.33" cy="27.39" r="2.56"/><path class="cls-2" d="M25.32,4A10.71,10.71,0,0,0,14.61,14.75V26.07a4,4,0,0,1,7.94,0h5.54a4,4,0,0,1,7.94,0V14.75A10.71,10.71,0,0,0,25.32,4Zm4.25,5.8A1.55,1.55,0,1,1,28,11.39,1.56,1.56,0,0,1,29.57,9.84Zm-7.71,0a1.55,1.55,0,1,1-1.55,1.55A1.55,1.55,0,0,1,21.86,9.84Zm3.86,12a6.51,6.51,0,0,1-6.35-5H32.06A6.51,6.51,0,0,1,25.72,21.83Z"/><path class="cls-2" d="M19.12,25.37a.57.57,0,0,1,0,1.13.57.57,0,1,1,0-1.13m0-.86a1.43,1.43,0,1,0,1.42,1.42,1.42,1.42,0,0,0-1.42-1.42Z"/><path class="cls-2" d="M19.12,29.77a.57.57,0,0,1,.56.57.56.56,0,0,1-.56.56.57.57,0,0,1-.57-.56.58.58,0,0,1,.57-.57m0-.86a1.43,1.43,0,1,0,1.42,1.43,1.42,1.42,0,0,0-1.42-1.43Z"/><path class="cls-2" d="M17.7,34.17a.57.57,0,0,1,.56.57.57.57,0,0,1-1.13,0,.57.57,0,0,1,.57-.57m0-.85a1.42,1.42,0,1,0,1.42,1.42,1.42,1.42,0,0,0-1.42-1.42Z"/><path class="cls-2" d="M11.73,25.37a.57.57,0,1,1,0,1.13.57.57,0,0,1,0-1.13m0-.86a1.43,1.43,0,1,0,1.42,1.42,1.42,1.42,0,0,0-1.42-1.42Z"/><path class="cls-2" d="M11.73,29.77a.58.58,0,0,1,.57.57.57.57,0,0,1-.57.56.56.56,0,0,1-.56-.56.57.57,0,0,1,.56-.57m0-.86a1.43,1.43,0,1,0,1.42,1.43,1.42,1.42,0,0,0-1.42-1.43Z"/><path class="cls-2" d="M13.15,34.17a.57.57,0,0,1,.57.57.57.57,0,0,1-1.13,0,.57.57,0,0,1,.56-.57m0-.85a1.42,1.42,0,1,0,1.43,1.42,1.42,1.42,0,0,0-1.43-1.42Z"/><path class="cls-2" d="M31.6,25.37a.57.57,0,1,1-.57.56.56.56,0,0,1,.57-.56m0-.86A1.43,1.43,0,1,0,33,25.93a1.43,1.43,0,0,0-1.42-1.42Z"/><path class="cls-2" d="M31.6,29.77a.57.57,0,0,1,.56.57.57.57,0,0,1-1.13,0,.57.57,0,0,1,.57-.57m0-.86A1.43,1.43,0,1,0,33,30.34a1.43,1.43,0,0,0-1.42-1.43Z"/><path class="cls-2" d="M33,34.17a.57.57,0,0,1,.56.57.56.56,0,0,1-.56.56.57.57,0,0,1-.57-.56.58.58,0,0,1,.57-.57m0-.85a1.42,1.42,0,1,0,1.42,1.42A1.41,1.41,0,0,0,33,33.32Z"/><path class="cls-2" d="M39,25.37a.57.57,0,1,1,0,1.13.57.57,0,0,1,0-1.13m0-.86a1.43,1.43,0,1,0,1.43,1.42A1.43,1.43,0,0,0,39,24.51Z"/><path class="cls-2" d="M39,29.77a.58.58,0,0,1,.57.57.57.57,0,0,1-.57.56.56.56,0,0,1-.56-.56.57.57,0,0,1,.56-.57m0-.86a1.43,1.43,0,1,0,1.43,1.43A1.43,1.43,0,0,0,39,28.91Z"/><path class="cls-2" d="M37.56,34.17a.57.57,0,0,1,.56.57.56.56,0,0,1-1.12,0,.57.57,0,0,1,.56-.57m0-.85A1.42,1.42,0,1,0,39,34.74a1.41,1.41,0,0,0-1.42-1.42Z"/><path class="cls-3" d="M61,22.64c0-6.66,3.66-10.7,8.88-10.7s8.88,4.06,8.88,10.7S75.1,33.49,69.88,33.49,61,29.3,61,22.64Zm15,0c0-5.18-2.44-8.37-6.15-8.37s-6.15,3.19-6.15,8.37,2.44,8.52,6.15,8.52S76,27.82,76,22.64Z"/><path class="cls-3" d="M81.85,25.43c0-5.14,3.47-8.1,7.41-8.1a6.47,6.47,0,0,1,4.5,1.81l-1.33,1.72a4.45,4.45,0,0,0-3.05-1.36c-2.79,0-4.83,2.4-4.83,5.93s1.93,5.89,4.76,5.89a5.55,5.55,0,0,0,3.61-1.53l1.13,1.74a7.5,7.5,0,0,1-5,2C85,33.49,81.85,30.53,81.85,25.43Z"/><path class="cls-3" d="M97.57,28.35V19.84H95.28v-2l2.4-.14L98,13.4h2.17v4.32h4.17v2.12h-4.17v8.55c0,1.89.61,3,2.38,3a5.1,5.1,0,0,0,1.76-.42l.5,2a9.38,9.38,0,0,1-2.86.57C98.68,33.49,97.57,31.41,97.57,28.35Z"/><path class="cls-3" d="M106.23,25.43c0-5.14,3.36-8.1,7.13-8.1s7.14,3,7.14,8.1-3.36,8.06-7.14,8.06S106.23,30.53,106.23,25.43Zm11.58,0c0-3.53-1.8-5.93-4.45-5.93s-4.44,2.4-4.44,5.93,1.8,5.89,4.44,5.89S117.81,29,117.81,25.43Z"/><path class="cls-3" d="M124.55,17.72h2.15l.22,1.77H127a8.13,8.13,0,0,1,4.91-2.16c4,0,6.1,3.09,6.1,7.85,0,5.24-3.15,8.31-6.67,8.31a7,7,0,0,1-4.27-1.79l.08,2.69V39.6h-2.61Zm10.78,7.48c0-3.4-1.16-5.67-4.06-5.67-1.3,0-2.62.71-4.11,2.1V29.7a6,6,0,0,0,3.74,1.6C133.45,31.3,135.33,29,135.33,25.2Z"/><path class="cls-3" d="M141.91,27.47V17.72h2.61v9.41c0,2.87.86,4.1,2.9,4.1,1.58,0,2.67-.78,4.12-2.6V17.72h2.61V33.11H152l-.22-2.41h-.09c-1.43,1.68-3,2.79-5.08,2.79C143.37,33.49,141.91,31.39,141.91,27.47Z"/><path class="cls-3" d="M157.64,31.35l1.28-1.71a7,7,0,0,0,4.55,1.82c2,0,3-1.08,3-2.39,0-1.59-1.81-2.29-3.52-2.92-2.16-.79-4.59-1.85-4.59-4.45s2-4.37,5.31-4.37a7.85,7.85,0,0,1,4.79,1.73l-1.25,1.67a5.82,5.82,0,0,0-3.51-1.37c-1.94,0-2.83,1-2.83,2.21,0,1.46,1.67,2,3.41,2.67,2.22.84,4.7,1.74,4.7,4.67,0,2.5-2,4.58-5.62,4.58A9.21,9.21,0,0,1,157.64,31.35Z"/></g></g></svg>