<svg xmlns="http://www.w3.org/2000/svg" xmlns:xlink="http://www.w3.org/1999/xlink" viewBox="0 0 61.48 57.34"><defs><style>.cls-1{fill:none;}.cls-2{fill:#502374;}.cls-3{clip-path:url(#clip-path);}.cls-4{fill:#fff;}</style><clipPath id="clip-path" transform="translate(2.07)"><path class="cls-1" d="M55.83,11v.37a11.22,11.22,0,0,0-11.06-10H46A95.23,95.23,0,0,0,28.65,0,94.27,94.27,0,0,0,11,1.51h.44a11.21,11.21,0,0,0-9.92,10v0A94.23,94.23,0,0,0,0,29.08,95.35,95.35,0,0,0,1.44,46.4V44.72a11.22,11.22,0,0,0,10,11.11h0A94.35,94.35,0,0,0,29,57.34,95.35,95.35,0,0,0,46.36,55.9H44.78A11.23,11.23,0,0,0,55.9,44.84V46a95.23,95.23,0,0,0,1.44-17.31A94.27,94.27,0,0,0,55.83,11Z"/></clipPath></defs><g id="图层_2" data-name="图层 2"><g id="图层_1-2" data-name="图层 1"><path class="cls-2" d="M55.83,11v.37a11.22,11.22,0,0,0-11.06-10H46A95.23,95.23,0,0,0,28.65,0,94.27,94.27,0,0,0,11,1.51h.44a11.21,11.21,0,0,0-9.92,10v0A94.23,94.23,0,0,0,0,29.08,95.35,95.35,0,0,0,1.44,46.4V44.72a11.22,11.22,0,0,0,10,11.11h0A94.35,94.35,0,0,0,29,57.34,95.35,95.35,0,0,0,46.36,55.9H44.78A11.23,11.23,0,0,0,55.9,44.84V46a95.23,95.23,0,0,0,1.44-17.31A94.27,94.27,0,0,0,55.83,11Z" transform="translate(2.07)"/><g class="cls-3"><path class="cls-4" d="M-1,33.51a1,1,0,0,1-1-1V30.57a5.48,5.48,0,0,1,11,0,1,1,0,1,1-2.08,0,3.39,3.39,0,0,0-6.78,0v1.89A1,1,0,0,1-1,33.51Z" transform="translate(2.07)"/><path class="cls-4" d="M16.71,48.56A9.92,9.92,0,0,1,6.8,38.65a1,1,0,0,1,2.08,0,7.83,7.83,0,0,0,15.65,0V30.57a1,1,0,0,1,2.09,0v8.08A9.93,9.93,0,0,1,16.71,48.56Z" transform="translate(2.07)"/><path class="cls-4" d="M7.84,39.55a1,1,0,0,1-1-1V30.57a1,1,0,0,1,2.08,0v7.94A1,1,0,0,1,7.84,39.55Z" transform="translate(2.07)"/><path class="cls-4" d="M16.71,37.87a1,1,0,0,1-1.05-1V30.57a5.48,5.48,0,0,1,11,0,1,1,0,1,1-2.09,0,3.39,3.39,0,0,0-6.78,0v6.26A1,1,0,0,1,16.71,37.87Z" transform="translate(2.07)"/><path class="cls-4" d="M58.36,33.51a1,1,0,0,1-1-1V30.57a3.39,3.39,0,0,0-6.78,0,1,1,0,1,1-2.09,0,5.48,5.48,0,0,1,11,0v1.89A1,1,0,0,1,58.36,33.51Z" transform="translate(2.07)"/><path class="cls-4" d="M40.63,48.56a9.93,9.93,0,0,1-9.91-9.91V30.57a1,1,0,0,1,2.09,0v8.08a7.82,7.82,0,0,0,15.64,0,1,1,0,0,1,2.09,0A9.93,9.93,0,0,1,40.63,48.56Z" transform="translate(2.07)"/><path class="cls-4" d="M49.5,39.55a1,1,0,0,1-1-1V30.57a1,1,0,0,1,2.09,0v7.94A1,1,0,0,1,49.5,39.55Z" transform="translate(2.07)"/><path class="cls-4" d="M40.63,37.87a1,1,0,0,1-1-1V30.57a3.39,3.39,0,0,0-6.78,0,1,1,0,1,1-2.09,0,5.48,5.48,0,0,1,11,0v6.26A1,1,0,0,1,40.63,37.87Z" transform="translate(2.07)"/><circle class="cls-4" cx="30.75" cy="33.25" r="3.11"/><path class="cls-4" d="M28.67,4.9a13,13,0,0,0-13,13V31.64a4.82,4.82,0,0,1,9.64,0H32a4.82,4.82,0,0,1,9.64,0V17.91A13,13,0,0,0,28.67,4.9Zm5.16,7A1.88,1.88,0,1,1,32,13.83,1.88,1.88,0,0,1,33.83,12Zm-9.36,0a1.88,1.88,0,1,1-1.88,1.88A1.88,1.88,0,0,1,24.47,12ZM29.15,26.5a7.91,7.91,0,0,1-7.71-6.12H36.85A7.9,7.9,0,0,1,29.15,26.5Z" transform="translate(2.07)"/><path class="cls-4" d="M21.14,30.8a.69.69,0,1,1-.68.68.68.68,0,0,1,.68-.68m0-1a1.73,1.73,0,1,0,1.73,1.72,1.73,1.73,0,0,0-1.73-1.72Z" transform="translate(2.07)"/><path class="cls-4" d="M21.14,36.14a.69.69,0,0,1,.69.69.68.68,0,0,1-.69.68.67.67,0,0,1-.68-.68.68.68,0,0,1,.68-.69m0-1a1.73,1.73,0,1,0,1.73,1.73,1.73,1.73,0,0,0-1.73-1.73Z" transform="translate(2.07)"/><path class="cls-4" d="M19.41,41.49a.69.69,0,1,1-.68.68.69.69,0,0,1,.68-.68m0-1a1.73,1.73,0,1,0,1.73,1.72,1.72,1.72,0,0,0-1.73-1.72Z" transform="translate(2.07)"/><path class="cls-4" d="M12.17,30.8a.69.69,0,1,1-.68.68.68.68,0,0,1,.68-.68m0-1a1.73,1.73,0,1,0,1.73,1.72,1.73,1.73,0,0,0-1.73-1.72Z" transform="translate(2.07)"/><path class="cls-4" d="M12.17,36.14a.69.69,0,0,1,.69.69.68.68,0,0,1-.69.68.67.67,0,0,1-.68-.68.68.68,0,0,1,.68-.69m0-1a1.73,1.73,0,1,0,1.73,1.73,1.73,1.73,0,0,0-1.73-1.73Z" transform="translate(2.07)"/><path class="cls-4" d="M13.9,41.49a.69.69,0,0,1,0,1.37.69.69,0,1,1,0-1.37m0-1a1.73,1.73,0,1,0,1.73,1.72,1.73,1.73,0,0,0-1.73-1.72Z" transform="translate(2.07)"/><path class="cls-4" d="M36.29,30.8a.69.69,0,1,1-.69.68.69.69,0,0,1,.69-.68m0-1A1.73,1.73,0,1,0,38,31.48a1.72,1.72,0,0,0-1.73-1.72Z" transform="translate(2.07)"/><path class="cls-4" d="M36.29,36.14a.69.69,0,0,1,.68.69.69.69,0,0,1-1.37,0,.69.69,0,0,1,.69-.69m0-1A1.73,1.73,0,1,0,38,36.83a1.72,1.72,0,0,0-1.73-1.73Z" transform="translate(2.07)"/><path class="cls-4" d="M38,41.49a.69.69,0,1,1-.69.68.69.69,0,0,1,.69-.68m0-1a1.73,1.73,0,1,0,1.72,1.72A1.72,1.72,0,0,0,38,40.45Z" transform="translate(2.07)"/><path class="cls-4" d="M45.26,30.8a.69.69,0,1,1-.69.68.69.69,0,0,1,.69-.68m0-1A1.73,1.73,0,1,0,47,31.48a1.72,1.72,0,0,0-1.72-1.72Z" transform="translate(2.07)"/><path class="cls-4" d="M45.26,36.14a.69.69,0,0,1,.68.69.69.69,0,0,1-1.37,0,.69.69,0,0,1,.69-.69m0-1A1.73,1.73,0,1,0,47,36.83a1.72,1.72,0,0,0-1.72-1.73Z" transform="translate(2.07)"/><path class="cls-4" d="M43.53,41.49a.69.69,0,0,1,0,1.37.69.69,0,1,1,0-1.37m0-1a1.73,1.73,0,1,0,1.73,1.72,1.72,1.72,0,0,0-1.73-1.72Z" transform="translate(2.07)"/></g></g></g></svg>