<?xml version="1.0" standalone="no"?><!DOCTYPE svg PUBLIC "-//W3C//DTD SVG 1.1//EN" "http://www.w3.org/Graphics/SVG/1.1/DTD/svg11.dtd"><svg t="1628587769318" class="icon" viewBox="0 0 1024 1024" version="1.1" xmlns="http://www.w3.org/2000/svg" p-id="2254" xmlns:xlink="http://www.w3.org/1999/xlink" width="200" height="200"><defs><style type="text/css"></style></defs><path d="M863.648 245.12H864V784c0 61.856-157.6 112-352 112S160 845.856 160 784V245.12h0.352A36.512 36.512 0 0 1 160 240C160 178.144 317.6 128 512 128s352 50.144 352 112c0 1.728-0.128 3.424-0.352 5.12z" fill="#FFFFFF" p-id="2255"></path><path d="M896 416V783.84l-7.68 16.16c-35.584 73.024-190.56 128-376.32 128S171.264 873.024 135.68 800L128 775.808V240C128 160.48 299.936 96 512 96s384 64.48 384 144V416z m-32 32.032v-150.4C804.704 348.48 669.44 384 512 384S219.296 348.48 160 297.632V448h-0.032c59.232 56.512 194.56 96 352.032 96 157.44 0 292.704-39.456 352-95.968z m-704 224v104.832l4.448 9.12C193.568 845.696 339.584 896 512 896c172.416 0 318.464-50.304 347.552-110.016l4.448-9.12V672C804.704 728.544 669.44 768 512 768s-292.704-39.456-352-95.968zM160 608c0 63.04 155.936 128 352 128s352-64.96 352-128v-118.656C789.76 543.232 658.56 576 512 576s-277.76-32.768-352-86.656V608z m352-256c195.456 0 352-58.72 352-112S707.456 128 512 128 160 186.72 160 240 316.544 352 512 352z" fill="#5D6D7E" p-id="2256"></path></svg>