<?xml version="1.0" standalone="no"?><!DOCTYPE svg PUBLIC "-//W3C//DTD SVG 1.1//EN" "http://www.w3.org/Graphics/SVG/1.1/DTD/svg11.dtd"><svg t="1628041316586" class="icon" viewBox="0 0 1024 1024" version="1.1" xmlns="http://www.w3.org/2000/svg" p-id="13794" xmlns:xlink="http://www.w3.org/1999/xlink" width="200" height="200"><defs><style type="text/css"></style></defs><path d="M512.474 644.74c-4.077 0-8.154-1.137-11.662-3.507L138.145 404.196c-6.068-3.983-9.67-10.62-9.67-17.826s3.602-13.937 9.67-17.825l362.667-237.037a21.259 21.259 0 0 1 23.324 0l362.667 237.037c6.068 3.982 9.671 10.62 9.671 17.825s-3.603 13.938-9.671 17.826l-134.732 88.083c-9.86 6.447-23.04 3.697-29.487-6.163-6.448-9.861-3.698-23.04 6.163-29.488l107.425-70.163L512.474 174.84 188.776 386.37l323.698 211.532 111.882-73.197c9.86-6.447 23.04-3.698 29.487 6.163 6.447 9.86 3.698 23.04-6.163 29.488l-123.639 80.782c-3.413 2.465-7.49 3.603-11.567 3.603z m0 251.26c-4.077 0-8.154-1.138-11.662-3.508L138.145 655.455c-6.068-3.982-9.67-10.62-9.67-17.825s3.602-13.938 9.67-17.826l134.732-88.083c9.86-6.447 23.04-3.697 29.487 6.163 6.448 9.861 3.698 23.04-6.163 29.488l-107.425 70.163 323.698 211.532 323.698-211.532-323.698-211.437-111.881 73.197c-9.861 6.447-23.04 3.698-29.488-6.163-6.447-9.86-3.698-23.04 6.163-29.488l123.639-80.782a21.259 21.259 0 0 1 23.324 0L886.898 619.9c6.068 3.982 9.67 10.62 9.67 17.825s-3.602 13.938-9.67 17.826L524.23 892.587A21.99 21.99 0 0 1 512.474 896z m0-474.074c-11.757 0-21.333-9.576-21.333-21.333v-251.26c0-11.757 9.576-21.333 21.333-21.333s21.333 9.576 21.333 21.333v251.26c0 11.757-9.576 21.333-21.333 21.333z m0 474.074c-11.757 0-21.333-9.576-21.333-21.333v-251.26c0-11.757 9.576-21.333 21.333-21.333s21.333 9.576 21.333 21.333v251.26c0 11.757-9.576 21.333-21.333 21.333z" p-id="13795"></path></svg>