<?xml version="1.0" standalone="no"?><!DOCTYPE svg PUBLIC "-//W3C//DTD SVG 1.1//EN" "http://www.w3.org/Graphics/SVG/1.1/DTD/svg11.dtd"><svg t="1628041473940" class="icon" viewBox="0 0 1024 1024" version="1.1" xmlns="http://www.w3.org/2000/svg" p-id="16229" xmlns:xlink="http://www.w3.org/1999/xlink" width="200" height="200"><defs><style type="text/css"></style></defs><path d="M702.358974 323.741538H319.277949a27.569231 27.569231 0 1 0 0 55.138462H702.358974a27.569231 27.569231 0 1 0 0-55.138462zM702.358974 538.518974H319.277949a27.569231 27.569231 0 1 0 0 55.138462H702.358974a27.569231 27.569231 0 1 0 0-55.138462zM702.358974 753.558974H319.277949a28.094359 28.094359 0 0 0-28.356923 27.569231 28.094359 28.094359 0 0 0 28.356923 27.569231H702.358974a28.094359 28.094359 0 0 0 28.356923-27.569231 28.094359 28.094359 0 0 0-28.356923-27.569231z" p-id="16230"></path><path d="M786.379487 52.512821h-99.511795a78.769231 78.769231 0 0 0-73.517948-52.512821h-188.78359a78.769231 78.769231 0 0 0-73.517949 52.512821H237.620513A121.042051 121.042051 0 0 0 116.841026 172.767179V903.220513A121.042051 121.042051 0 0 0 237.620513 1024h548.758974a121.042051 121.042051 0 0 0 120.779487-120.779487V172.767179A121.042051 121.042051 0 0 0 786.379487 52.512821zM424.566154 52.512821h188.521025a26.25641 26.25641 0 1 1 0 52.51282h-188.521025a26.25641 26.25641 0 1 1 0-52.51282zM854.646154 903.220513a68.266667 68.266667 0 0 1-68.266667 68.266666H237.620513A68.266667 68.266667 0 0 1 169.353846 903.220513V172.767179A68.266667 68.266667 0 0 1 237.620513 105.025641h112.902564a78.769231 78.769231 0 0 0 73.780513 52.512821h188.783589a78.769231 78.769231 0 0 0 73.780513-52.512821h99.511795a68.266667 68.266667 0 0 1 68.266667 68.266667z" p-id="16231"></path></svg>