<?xml version="1.0" standalone="no"?><!DOCTYPE svg PUBLIC "-//W3C//DTD SVG 1.1//EN" "http://www.w3.org/Graphics/SVG/1.1/DTD/svg11.dtd"><svg t="1628039963611" class="icon" viewBox="0 0 1024 1024" version="1.1" xmlns="http://www.w3.org/2000/svg" p-id="5386" xmlns:xlink="http://www.w3.org/1999/xlink" width="200" height="200"><defs><style type="text/css"></style></defs><path d="M511.5 47c-256.817 0-465 208.206-465 465 0 256.84 208.183 465 465 465s465-208.16 465-465c0-256.795-208.183-465-465-465z m0 860.25c-218.286 0-395.25-176.964-395.25-395.25 0-218.287 176.964-395.25 395.25-395.25 218.287 0 395.25 176.963 395.25 395.25 0 218.286-176.963 395.25-395.25 395.25z" p-id="5387"></path><path d="M777.672 512.045H545.898V244.67c0-19.299-15.621-34.875-34.875-34.875-19.276 0-34.875 15.576-34.875 34.875v302.25c0 19.254 15.599 34.875 34.875 34.875 1.854 0 3.672-0.147 5.446-0.427 1.776 0.279 3.597 0.427 5.452 0.427h255.75c19.254 0 34.875-15.621 34.875-34.875 0.001-19.299-15.62-34.875-34.874-34.875z" p-id="5388"></path></svg>