<?xml version="1.0" standalone="no"?><!DOCTYPE svg PUBLIC "-//W3C//DTD SVG 1.1//EN" "http://www.w3.org/Graphics/SVG/1.1/DTD/svg11.dtd"><svg t="1628041078863" class="icon" viewBox="0 0 1024 1024" version="1.1" xmlns="http://www.w3.org/2000/svg" p-id="12621" xmlns:xlink="http://www.w3.org/1999/xlink" width="200" height="200"><defs><style type="text/css"></style></defs><path d="M893.3 323.7v-0.2c0-0.7-0.1-1.4-0.2-2.2 0-0.2 0-0.4-0.1-0.6-0.1-0.7-0.2-1.5-0.4-2.2v-0.1c-0.2-0.8-0.3-1.5-0.5-2.2-0.1-0.2-0.1-0.4-0.2-0.6-0.2-0.7-0.4-1.4-0.6-2 0-0.1 0-0.1-0.1-0.2-0.3-0.7-0.5-1.4-0.8-2.1l-0.3-0.6-0.9-1.8c0-0.1-0.1-0.2-0.1-0.3-0.4-0.7-0.7-1.3-1.1-2-0.1-0.2-0.2-0.4-0.4-0.6-0.4-0.6-0.8-1.2-1.2-1.7 0-0.1-0.1-0.1-0.1-0.2l-1.5-1.8c-0.1-0.2-0.3-0.3-0.4-0.5-0.5-0.6-1.1-1.2-1.6-1.8L657.5 74.7c-0.6-0.6-1.2-1.1-1.8-1.6l-0.4-0.4-1.8-1.5c-0.1 0-0.1-0.1-0.2-0.1l-1.8-1.2c-0.2-0.1-0.4-0.2-0.5-0.3-0.7-0.4-1.3-0.8-2-1.1-0.1 0-0.2-0.1-0.2-0.1-0.6-0.3-1.2-0.6-1.9-0.9l-0.6-0.3c-0.7-0.3-1.4-0.6-2.1-0.8-0.1 0-0.1 0-0.2-0.1-0.7-0.2-1.4-0.5-2.1-0.7-0.2-0.1-0.4-0.1-0.5-0.2-0.8-0.2-1.5-0.4-2.3-0.5-0.8-0.1-1.5-0.3-2.3-0.4-0.2 0-0.4 0-0.6-0.1-0.7-0.1-1.5-0.2-2.2-0.2H185.3c-30.9 0-56 25.1-56 56v783.7c0 30.9 25.1 56 56 56h672c19.9 0 36-16.1 36-36V325.5v-1.8z m-122.9-34.2H668V187.1l102.4 102.4zM201.3 887.9V136.2H596v189.3c0 19.9 16.1 36 36 36h189.3v526.4h-620z" p-id="12622"></path><path d="M641.5 558.4L477.2 429.7c-17-13.4-39.6-15.8-59.1-6.4-19.4 9.4-31.5 28.7-31.5 50.4v257.2c0 21.6 12 40.9 31.4 50.3 7.9 3.9 16.3 5.8 24.7 5.8 12.2 0 24.3-4 34.4-11.9l164.5-128.4c13.7-10.7 21.5-26.9 21.5-44.3-0.2-17.3-8-33.3-21.6-44zM458.6 698.1V506.6L581 602.5l-122.4 95.6z" p-id="12623"></path></svg>